<svg width="90" height="95" viewBox="0 0 90 95" fill="none" xmlns="http://www.w3.org/2000/svg">
  <circle cx="44" cy="58" r="37" fill="#46A358" fill-opacity="0.13" />
  <g clip-path="url(#clip0_104_843)">
    <path
      d="M35.1292 46.3569C47.7022 48.0205 60.3917 48.282 73.023 47.1369C73.8794 47.0602 73.8884 45.7077 73.023 45.7844C60.3917 46.9295 47.7022 46.668 35.1292 45.0044C34.2773 44.8917 34.2818 46.2487 35.1292 46.3569Z"
      fill="#727272" />
    <path
      d="M38.0304 92.0307C43.4649 92.725 48.9353 93.0631 54.4147 92.9865C59.2349 92.9189 64.925 93.1308 69.4448 91.2237C70.2295 90.8901 69.8843 89.5827 69.0861 89.9208C64.4497 91.8775 58.5085 91.6115 53.5493 91.643C48.3569 91.6791 43.1779 91.3365 38.0259 90.6782C37.1739 90.57 37.1784 91.9225 38.0304 92.0307Z"
      fill="#727272" />
    <path
      d="M34.6046 45.3155C28.3316 51.1673 25.408 59.8909 26.0986 68.3981C26.4528 72.7937 27.6904 77.0675 29.5512 81.0529C31.2461 84.6866 33.7437 89.8937 37.4923 91.7827C38.2635 92.1704 38.9451 91.0072 38.1693 90.615C34.6808 88.8568 32.3088 83.7939 30.7125 80.3721C28.8562 76.3823 27.641 72.0498 27.3899 67.6452C26.9416 59.706 29.7126 51.7218 35.5597 46.2713C36.1964 45.6807 35.2413 44.7249 34.6046 45.3155Z"
      fill="#727272" />
    <path
      d="M72.5478 46.9522C79.1661 51.1223 79.7893 60.1164 79.6279 67.199C79.4486 75.0975 78.4755 87.6126 69.0862 89.9209C68.2477 90.1283 68.6019 91.4312 69.4449 91.2238C79.2468 88.8163 80.6547 76.3959 80.9507 68.0375C81.2242 60.2156 80.5337 50.3875 73.2248 45.7845C72.4895 45.3247 71.8169 46.4923 72.5478 46.9522Z"
      fill="#727272" />
    <path
      d="M39.5773 46.366C34.6405 51.7084 32.4613 60.6303 33.2953 67.785C33.7795 71.9462 35.0889 76.0758 36.0619 80.1378C37.0394 84.2088 38.0483 88.2483 40.2633 91.8414C40.7207 92.5807 41.882 91.9 41.4247 91.1606C39.3441 87.7884 38.3756 84.0195 37.4564 80.2009C36.5686 76.5221 35.5328 72.8388 34.8467 69.1195C33.5464 62.0369 35.5821 52.6777 40.5279 47.3218C41.1153 46.6816 40.1647 45.7259 39.5773 46.366Z"
      fill="#727272" />
    <path
      d="M46.2404 46.9295C42.5636 53.4395 40.631 60.8331 40.7297 68.3259C40.779 71.9235 41.2902 75.5257 42.2677 78.9881C43.4828 83.2845 45.3302 87.36 46.1373 91.7736C46.2942 92.6302 47.5901 92.265 47.4332 91.413C46.7292 87.5493 45.236 83.9517 44.0478 80.2278C42.8954 76.6122 42.2049 72.8838 42.0883 69.0833C41.8551 61.5679 43.7115 54.1427 47.4018 47.6102C47.8322 46.8528 46.6709 46.1721 46.2404 46.9295Z"
      fill="#727272" />
    <path
      d="M50.2043 48.2234C51.4822 55.7343 49.9308 63.2586 50.0608 70.8011C50.1191 74.2454 50.8858 77.4508 51.3342 80.8411C51.8006 84.3621 51.0024 87.9822 50.5675 91.4762C50.4599 92.3373 51.8051 92.3282 51.9127 91.4762C52.3521 87.9507 53.1458 84.3034 52.6794 80.7509C52.2041 77.1172 51.4015 73.6728 51.397 69.976C51.388 62.5779 52.7512 55.2339 51.5001 47.8673C51.3522 47.0107 50.0563 47.3714 50.2043 48.2234Z"
      fill="#727272" />
    <path
      d="M55.2487 47.5968C57.6118 54.3818 57.8987 61.541 58.1364 68.6596C58.3965 76.3914 58.0108 84.0014 56.576 91.6114C56.4146 92.4635 57.7104 92.8287 57.8718 91.9721C59.3291 84.2448 59.7461 76.5086 59.4816 68.6596C59.2394 61.4238 58.9435 54.1293 56.5446 47.2361C56.2621 46.4246 54.9618 46.7762 55.2487 47.5968Z"
      fill="#727272" />
    <path
      d="M60.9074 47.6284C61.4051 49.1567 62.4813 50.1756 63.3063 51.519C64.2479 53.0519 64.7636 54.7876 65.0416 56.5548C65.6469 60.4139 65.36 64.4534 65.351 68.3441C65.342 72.5774 65.6649 77.0541 64.5753 81.1882C63.6157 84.8174 61.4141 87.9462 60.6787 91.652C60.5083 92.5041 61.8042 92.8648 61.9746 92.0127C62.7638 88.0454 65.203 84.6867 66.0639 80.7374C66.9473 76.698 66.6872 72.4511 66.6962 68.3441C66.7051 64.5481 66.9338 60.6664 66.4361 56.8929C66.2164 55.2249 65.8397 53.5748 65.1223 52.051C64.3242 50.3514 62.7862 49.0575 62.2078 47.2722C61.9342 46.4472 60.6339 46.7988 60.9074 47.6284Z"
      fill="#727272" />
    <path
      d="M67.4495 47.4163C70.1219 49.941 71.4088 53.9714 72.3728 57.4518C73.3772 61.0765 73.0409 64.9447 72.8167 68.655C72.3639 76.1839 71.0994 83.7038 67.5077 90.4121C67.0952 91.1785 68.2566 91.8638 68.6691 91.0929C72.4984 83.9382 73.7763 75.8954 74.2023 67.8706C74.4175 63.8311 74.5924 59.8863 73.3324 55.9957C72.2383 52.6189 71.0321 48.9492 68.4001 46.4561C67.7723 45.8655 66.8172 46.8212 67.4495 47.4163Z"
      fill="#727272" />
    <path
      d="M39.4697 50.7977C39.3307 51.1538 39.1783 51.5055 39.0124 51.8526C38.8016 52.2899 39.0482 52.8895 39.5953 52.8715C39.9854 52.858 40.2948 52.6822 40.5728 52.4162C40.6625 52.3305 40.7521 52.2403 40.8373 52.1547C40.9494 52.042 40.8015 52.2223 40.8867 52.1186C40.8687 52.1457 40.7746 52.1367 40.8598 52.1457C40.6445 51.8616 40.4293 51.5731 40.2096 51.2891C40.1513 51.5911 40.0885 51.8932 40.0302 52.1998C39.9585 52.5559 40.1334 52.9301 40.501 53.0338C40.8329 53.124 41.2588 52.9211 41.3306 52.5604C41.3889 52.2584 41.4516 51.9563 41.5099 51.6498C41.5996 51.1899 41.3171 50.8383 40.8598 50.7932C40.4876 50.7571 40.1513 50.9555 39.8867 51.1989C39.7926 51.2846 39.7119 51.3747 39.6177 51.4604C39.5863 51.4875 39.5594 51.5145 39.528 51.5416C39.5415 51.528 39.5549 51.519 39.5684 51.5055C39.5011 51.5416 39.5011 51.5461 39.5774 51.5145C39.5011 51.5325 39.5056 51.537 39.5908 51.5145C39.7836 51.8526 39.9764 52.1908 40.1737 52.5334C40.3889 52.0826 40.5862 51.6227 40.7656 51.1583C40.8956 50.8157 40.6221 50.4145 40.2948 50.3243C39.9181 50.2206 39.6043 50.4551 39.4697 50.7977Z"
      fill="#727272" />
    <path
      d="M36.1381 58.8902C36.0753 59.2689 36.0125 59.6476 35.9498 60.0217C35.9004 60.3238 35.9811 60.6213 36.2592 60.7836C36.5058 60.9279 36.8779 60.9009 37.0752 60.68C37.2053 60.5312 37.3353 60.3824 37.4653 60.2336C37.5505 60.1345 37.6716 59.9496 37.7747 59.8955C37.6626 59.9271 37.5505 59.9586 37.4339 59.9857C37.4564 59.9812 37.4833 59.9812 37.5057 59.9767C37.3936 59.9451 37.2815 59.9135 37.1649 59.8865C37.1828 59.9 37.2008 59.9135 37.2187 59.9271C37.1066 59.7332 36.9945 59.5394 36.8869 59.341C36.9228 59.7287 36.8152 60.1615 36.7703 60.5537C36.7075 61.1173 37.3757 61.3246 37.7837 61.1398C38.3128 60.8918 38.667 60.4365 38.8554 59.891C38.4787 59.9902 38.1065 60.0894 37.7299 60.1886C37.7164 60.1029 37.703 60.0172 37.6895 59.9316C37.4698 60.7746 38.7702 61.1353 38.9854 60.2922C39.084 59.909 38.9944 59.4898 38.6805 59.2328C38.2769 58.9037 37.7344 59.0209 37.555 59.5303C37.4743 59.7558 37.3084 59.873 37.1021 59.9722C37.4384 60.166 37.7747 60.3599 38.1155 60.5582C38.1828 59.9541 38.5056 58.8811 37.6806 58.6512C36.9856 58.4574 36.4968 59.2869 36.1202 59.7242C36.4968 59.9451 36.869 60.1615 37.2456 60.3824C37.3084 60.0037 37.3712 59.625 37.4339 59.2508C37.4922 58.8902 37.3398 58.5205 36.9631 58.4168C36.6448 58.3311 36.1964 58.5295 36.1381 58.8902Z"
      fill="#727272" />
    <path
      d="M35.5597 67.0367C35.6046 67.5687 35.6539 68.1007 35.6987 68.6281C35.766 69.381 36.7749 69.5568 37.0215 68.8085C37.156 68.3937 37.3443 68.0195 37.582 67.6498C37.174 67.5957 36.7614 67.5416 36.3534 67.4875C36.5103 67.8798 36.6179 68.281 36.6762 68.7048C36.7435 69.1827 37.3219 69.2638 37.6627 69.1105C37.8331 69.0339 37.9721 68.8851 38.0618 68.7228C38.1021 68.6507 38.1335 68.565 38.1604 68.4884C38.1739 68.4478 38.1828 68.4072 38.1963 68.3666C38.2187 68.299 38.2097 68.3035 38.1784 68.3802C38.0797 68.4388 37.9811 68.4974 37.8824 68.556C37.9048 68.547 37.9317 68.5425 37.9542 68.5335C37.8331 68.5335 37.7165 68.5335 37.5954 68.5335C37.5865 68.5289 37.5775 68.5244 37.573 68.5154C37.4923 68.4343 37.4116 68.3531 37.3309 68.272C37.3443 68.29 37.3533 68.308 37.3668 68.3261C37.3443 68.1503 37.3219 67.9789 37.2995 67.8031C37.295 67.8257 37.295 67.8482 37.2905 67.8662C37.2412 68.2269 37.3757 68.5921 37.7614 68.7003C38.0752 68.7859 38.5416 68.5921 38.5909 68.2269C38.6312 67.9339 38.6088 67.6679 38.3936 67.447C38.2142 67.2666 37.9407 67.181 37.6896 67.208C37.4295 67.2396 37.2009 67.3929 37.0619 67.6138C37.0036 67.7084 36.9229 67.8392 36.9184 67.9474C36.9139 68.1052 36.8466 67.9925 36.9901 67.9293C37.3174 68.0646 37.6493 68.1998 37.9766 68.3351C37.9183 67.9158 37.8107 67.5146 37.6537 67.1178C37.4385 66.5859 36.757 66.4326 36.4251 66.9555C36.1292 67.4199 35.9005 67.9158 35.7301 68.4343C36.1696 68.4929 36.609 68.556 37.0529 68.6146C37.0081 68.0826 36.9587 67.5506 36.9139 67.0232C36.8825 66.658 36.6269 66.3469 36.2413 66.3469C35.896 66.3604 35.5284 66.6715 35.5597 67.0367Z"
      fill="#727272" />
    <path
      d="M37.1784 76.5762C37.2233 77.3561 37.6134 78.0369 38.2905 78.4336C38.7389 78.6906 39.2949 78.3615 39.3038 77.8475C39.3083 77.4508 39.398 77.0856 39.5505 76.7204C39.1738 76.8196 38.8016 76.9188 38.425 77.018C38.6088 77.2434 38.8061 77.4418 39.0258 77.6266C39.3845 77.9287 40.0392 77.8701 40.1513 77.3291C40.1782 77.2073 40.2096 77.1036 40.2499 76.9909C39.8733 77.0901 39.5011 77.1893 39.1245 77.2885C39.1648 77.2659 39.1873 77.293 39.1828 77.3651C39.3263 77.7033 39.8195 77.7754 40.102 77.6086C40.4472 77.4057 40.4876 77.0225 40.3441 76.6844C40.2858 76.5491 40.1917 76.4274 40.0751 76.3327C39.6581 76.0036 39.1469 76.1253 38.9496 76.6303C38.9048 76.743 38.8734 76.8512 38.851 76.9684C39.2276 76.8692 39.5998 76.77 39.9764 76.6708C39.7567 76.486 39.5594 76.2831 39.3756 76.0622C39.0169 75.6204 38.425 75.9495 38.2501 76.3598C38.0528 76.8331 37.9631 77.3336 37.9542 77.8475C38.2905 77.6537 38.6268 77.4598 38.9675 77.2614C38.7075 77.1127 38.5371 76.8782 38.5191 76.5717C38.4743 75.7151 37.1291 75.7061 37.1784 76.5762Z"
      fill="#727272" />
    <path
      d="M39.9494 85.8498C40.1064 86.2555 40.2947 86.6297 40.5503 86.9859C40.9494 87.5359 41.743 87.333 41.8058 86.6433C41.8103 86.6027 41.882 86.1023 41.8551 86.0797C41.6623 86.2014 41.474 86.3232 41.2812 86.4449C41.326 86.508 41.3664 86.5666 41.4157 86.6252C41.5861 86.8416 41.7968 87.0265 42.0703 87.1031C42.2811 87.1572 42.5277 87.1302 42.7115 87.0129C42.8326 86.9318 42.9178 86.8371 42.9806 86.7064C43.003 86.6523 43.0254 86.5982 43.0478 86.5441C43.151 86.2195 42.9537 86.1654 42.4604 86.3818C42.7295 87.2023 44.0298 86.8506 43.7563 86.0211C43.568 85.4531 43.0209 85.0834 42.4246 85.3088C42.1824 85.4035 41.9717 85.5838 41.8551 85.8182C41.8192 85.8904 41.6892 86.2014 41.734 86.2916C41.9941 86.1428 42.2497 85.9896 42.5098 85.8408C42.4739 85.7957 42.438 85.7551 42.4066 85.71C42.1914 85.2727 41.5681 85.0248 41.1197 85.1871C40.4875 85.4125 40.5144 86.0887 40.4651 86.6478C40.8821 86.5351 41.2991 86.4224 41.7206 86.3051C41.5368 86.0527 41.3708 85.7867 41.2543 85.4936C40.9314 84.6912 39.6311 85.0383 39.9494 85.8498Z"
      fill="#727272" />
    <path
      d="M47.1372 50.9824C46.6529 51.3476 46.2494 51.7804 45.9848 52.3349C45.6396 53.0563 46.4422 53.6243 47.043 53.1555C47.1865 53.0427 47.33 52.93 47.4735 52.8173C47.5363 52.7677 47.5991 52.7181 47.6663 52.6686C47.6977 52.6415 47.7291 52.619 47.7605 52.5919C47.8726 52.5108 47.8143 52.5243 47.5856 52.628C47.4735 52.5964 47.3614 52.5649 47.2448 52.5378C47.2583 52.5468 47.2717 52.5558 47.2852 52.5649C47.2045 52.4837 47.1238 52.4026 47.043 52.3214C47.0296 52.2628 47.0117 52.2087 46.9982 52.1501C47.0027 52.087 47.0027 52.078 46.9892 52.1321C46.9578 52.1546 46.9489 52.3079 46.9489 52.3304C46.9175 52.5378 46.9354 52.7407 47.043 52.93C47.1417 53.1014 47.3166 53.2546 47.5094 53.3042C47.5901 53.3268 47.6932 53.3358 47.7784 53.3358C47.8591 53.3358 47.9309 53.3223 48.0026 53.2952C48.0968 53.2682 48.0654 53.2591 47.904 53.2682C47.8053 53.2096 47.7067 53.1509 47.608 53.0923C47.6215 53.1059 47.6349 53.1194 47.6484 53.1329C47.5901 53.0337 47.5318 52.9345 47.4735 52.8354C47.478 52.8489 47.4825 52.8669 47.487 52.8804C47.5094 52.7046 47.5318 52.5333 47.5542 52.3575C47.5452 52.371 47.5408 52.3845 47.5318 52.3981C47.1238 53.1645 48.2851 53.8497 48.6931 53.0788C48.868 52.7542 48.8277 52.389 48.5541 52.1321C48.4106 51.9968 48.2178 51.9157 48.0205 51.9112C47.9084 51.9066 47.7784 51.9788 47.6798 51.9698C47.7919 52.0013 47.904 52.0329 48.0205 52.0599C48.0026 52.0464 47.9847 52.0329 47.9712 52.0239C48.0519 52.105 48.1326 52.1862 48.2134 52.2673C48.2044 52.2493 48.1954 52.2312 48.1864 52.2132C48.2178 52.3259 48.2492 52.4386 48.2761 52.5558C48.2672 52.4702 48.2806 52.5153 48.312 52.389C48.3479 52.2312 48.3524 52.0599 48.3165 51.8976C48.2403 51.573 47.9981 51.3386 47.6753 51.28C47.339 51.2169 47.1103 51.3927 46.8547 51.5911C46.5991 51.7894 46.3435 51.9923 46.088 52.1907C46.4422 52.4657 46.7919 52.7362 47.1462 53.0112C47.3076 52.6776 47.5139 52.371 47.8143 52.1456C48.1057 51.9292 48.2537 51.5595 48.0564 51.2214C47.8905 50.9374 47.4331 50.766 47.1372 50.9824Z"
      fill="#727272" />
    <path
      d="M44.5052 58.5925C44.3931 59.1335 44.2855 59.6745 44.1734 60.22C44.0344 60.9097 44.7787 61.3065 45.2988 60.8782C45.4513 60.7519 45.5858 60.5941 45.6844 60.4228C45.7517 60.3056 45.8324 60.0667 45.8683 60.0081C45.7876 60.0892 45.7069 60.1704 45.6262 60.2515C45.6486 60.238 45.6665 60.2245 45.6889 60.2064C45.5768 60.238 45.4647 60.2696 45.3482 60.2966C45.3751 60.2921 45.402 60.2921 45.4289 60.2876C45.3168 60.256 45.2047 60.2245 45.0881 60.1974C44.9805 60.1478 44.976 59.972 45.0074 60.2019C45.0163 60.2605 45.0298 60.3101 45.0477 60.3642C45.1105 60.5671 45.2226 60.7474 45.393 60.8737C45.5499 60.9909 45.7338 61.054 45.9311 61.0495C46.0521 61.045 46.1642 61.0134 46.2718 60.9593C46.3301 60.9368 46.3795 60.9052 46.4243 60.8646C46.5409 60.7835 46.5095 60.788 46.3346 60.8692C46.2225 60.8376 46.1104 60.806 45.9938 60.779C46.0118 60.788 46.0163 60.797 46.0297 60.8331C46.3167 61.6491 47.617 61.2974 47.3256 60.4724C47.2 60.1163 47.0162 59.7872 46.6709 59.6113C46.4916 59.5167 46.2674 59.4896 46.0701 59.5347C45.8728 59.5798 45.7562 59.7105 45.5858 59.7917C45.6979 59.7601 45.81 59.7286 45.9266 59.7015C45.9042 59.7015 45.8773 59.7015 45.8548 59.7015C45.9669 59.7331 46.079 59.7646 46.1956 59.7917C46.3167 60.0036 46.3526 60.0351 46.3032 59.8863C46.2943 59.8277 46.2853 59.7691 46.2763 59.7105C46.2449 59.5933 46.1956 59.4716 46.1328 59.3724C45.9669 59.1109 45.6934 58.9396 45.384 58.9441C45.0791 58.9486 44.8011 59.1244 44.6576 59.3904C44.5366 59.6158 44.5455 59.7511 44.3393 59.9224C44.7159 60.1433 45.0881 60.3597 45.4647 60.5806C45.5768 60.0396 45.6844 59.4986 45.7965 58.9576C45.9759 58.1011 44.68 57.7404 44.5052 58.5925Z"
      fill="#727272" />
    <path
      d="M43.985 65.5039C43.846 66.2298 43.7563 66.9601 43.7339 67.695C43.716 68.2089 44.3168 68.5335 44.7473 68.281C44.9446 68.1638 45.0881 68.006 45.1957 67.8032C45.236 67.7265 45.3526 67.5507 45.3302 67.4831C45.3257 67.4741 45.2854 67.5327 45.3033 67.5236C45.1912 67.5552 45.0791 67.5868 44.9625 67.6138C44.9535 67.6183 44.9401 67.6183 44.9311 67.6228C44.8504 67.5417 44.7697 67.4605 44.689 67.3794C44.7652 67.4786 44.7563 67.4695 44.7652 67.5732C44.8145 68.1278 45.4782 68.4974 45.9131 68.0511C45.9624 67.997 46.0118 67.9474 46.0656 67.8978C45.9714 67.9429 45.8728 67.9339 45.7786 67.8798C45.7203 67.7806 45.662 67.6814 45.6037 67.5823C45.6127 67.6093 45.6217 67.6364 45.6351 67.6634C45.7607 68.006 46.0925 68.2405 46.4646 68.1368C46.792 68.0466 47.061 67.6499 46.9354 67.3027C46.5857 66.347 45.5678 66.4687 44.9625 67.0954C45.3436 67.2531 45.7293 67.4154 46.1104 67.5732C46.0566 66.9195 45.7337 66.2117 44.9625 66.2613C44.6486 66.2793 44.3706 66.4642 44.2047 66.7302C44.1464 66.8249 44.1061 66.9331 44.0612 67.0367C44.0119 67.1495 43.9267 67.19 44.0657 67.1089C44.402 67.3027 44.7383 67.4966 45.0791 67.695C45.097 67.0773 45.1643 66.4687 45.2809 65.8601C45.4468 65.0125 44.1509 64.6518 43.985 65.5039Z"
      fill="#727272" />
    <path
      d="M44.6532 73.2265C44.8056 73.8306 44.9895 74.4212 45.2047 75.0028C45.3796 75.4761 45.9401 75.6745 46.3302 75.3003C46.5006 75.1335 46.6171 74.9396 46.6754 74.7052C46.6979 74.6105 46.7158 74.4978 46.7203 74.4031C46.7337 74.1146 46.7023 74.3536 46.7292 74.34C46.6171 74.3716 46.505 74.4031 46.3885 74.4302C46.4198 74.4302 46.4468 74.4257 46.4781 74.4257C46.366 74.3941 46.2539 74.3626 46.1374 74.3355C46.0477 74.2949 46.0746 74.2544 46.1463 74.3806C46.1822 74.4437 46.2136 74.4978 46.2584 74.5564C46.3974 74.7368 46.5678 74.8585 46.7965 74.89C46.9983 74.9171 47.1911 74.8675 47.3615 74.7503C47.4556 74.6827 47.5408 74.606 47.6036 74.5068C47.6305 74.4527 47.6574 74.3986 47.6798 74.3445C47.7695 74.1687 47.6933 74.2138 47.4512 74.4843C47.3301 74.4843 47.2135 74.4843 47.0924 74.4843C47.0386 74.4392 46.9893 74.3896 46.9355 74.3445C46.9041 74.2318 46.8727 74.1191 46.8458 74.0019C46.8458 74.029 46.8458 74.056 46.8458 74.0831C46.8324 74.9532 48.1776 74.9532 48.191 74.0831C48.2 73.6277 47.8861 73.2716 47.4512 73.1814C47.218 73.1318 46.9848 73.1814 46.792 73.3211C46.6979 73.3888 46.6216 73.4654 46.5589 73.5601C46.5454 73.5871 46.5319 73.6187 46.514 73.6457C46.3974 73.8712 46.4288 73.8667 46.6127 73.6322C46.7248 73.6007 46.8369 73.5691 46.9534 73.5421C46.931 73.5466 46.9086 73.5466 46.8862 73.5511C46.9983 73.5826 47.1104 73.6142 47.227 73.6412C47.4198 73.7359 47.3211 73.7044 47.2494 73.5781C47.1956 73.4789 47.1238 73.3843 47.0431 73.3121C46.7875 73.0822 46.4512 73.0236 46.1329 73.1363C45.8773 73.2265 45.6845 73.4248 45.5544 73.6548C45.4827 73.7855 45.4468 73.9162 45.4199 74.0605C45.4065 74.1236 45.4199 74.304 45.3796 74.3445C45.7562 74.4437 46.1284 74.5429 46.505 74.6421C46.2898 74.0605 46.106 73.4654 45.9535 72.8658C45.7338 72.0273 44.4379 72.3834 44.6532 73.2265Z"
      fill="#727272" />
    <path
      d="M45.3302 79.6869C45.5724 80.4037 45.8818 81.0935 46.2629 81.7427C46.5364 82.207 47.1418 82.1529 47.4242 81.7427C47.5005 81.63 47.5543 81.5128 47.5901 81.382C47.5946 81.3414 47.5991 81.3054 47.6081 81.2648C47.6798 81.0033 47.617 81.0123 47.4108 81.2964C47.2897 81.2964 47.1731 81.2964 47.0521 81.2964C46.8637 81.2378 46.9489 81.2513 47.0476 81.3595C47.1193 81.4361 47.209 81.5173 47.3032 81.5714C47.496 81.6796 47.7247 81.7202 47.9444 81.7021C48.4466 81.6661 48.7918 81.3324 48.9577 80.8771C49.2582 80.0611 47.9578 79.7049 47.6619 80.5164C47.7471 80.291 47.9578 80.4172 47.922 80.309C47.8951 80.2324 47.7381 80.1287 47.6664 80.0881C47.4467 79.9619 47.1821 79.9349 46.9445 80.016C46.7247 80.0881 46.5499 80.2549 46.4378 80.4578C46.3391 80.6382 46.366 80.9086 46.2584 81.0619C46.644 81.0619 47.0341 81.0619 47.4198 81.0619C47.0924 80.5074 46.8279 79.9394 46.6216 79.3307C46.3526 78.5102 45.0522 78.8619 45.3302 79.6869Z"
      fill="#727272" />
    <path
      d="M47.1014 87.4008C47.1058 87.775 47.1597 88.1492 47.2762 88.5008C47.3614 88.7578 47.5632 88.9471 47.8367 88.9832C48.0833 89.0148 48.3927 88.9021 48.5048 88.6586C48.5811 88.4963 48.6573 88.334 48.7335 88.1762C48.7694 88.0996 48.8053 88.0274 48.8367 87.9508C48.8546 87.9147 48.8725 87.8742 48.8905 87.8381C48.9263 87.7705 48.9263 87.7705 48.8905 87.8381C48.7918 87.8967 48.6932 87.9553 48.5945 88.0139C48.608 88.0094 48.6259 88.0004 48.6394 87.9959C48.5183 87.9959 48.4017 87.9959 48.2806 87.9959C48.2582 87.9869 48.2313 87.9733 48.2089 87.9643C48.1282 87.8832 48.0475 87.802 47.9668 87.7209C47.8995 87.6082 47.9623 87.7028 47.9892 87.7795C48.0116 87.8516 48.0385 87.9192 48.0609 87.9914C48.1103 88.1311 48.1596 88.2754 48.2044 88.4152C48.321 88.7623 48.6663 88.9877 49.0339 88.8885C49.3658 88.7984 49.6213 88.4016 49.5048 88.0545C49.3119 87.4955 49.1505 86.5758 48.3703 86.6795C47.765 86.7606 47.5632 87.5 47.339 87.9779C47.7471 88.032 48.1596 88.0861 48.5676 88.1402C48.4824 87.8742 48.4421 87.6578 48.4376 87.3963C48.4331 87.0446 48.1327 86.702 47.765 86.72C47.4108 86.7381 47.0969 87.0221 47.1014 87.4008Z"
      fill="#727272" />
    <path
      d="M53.2803 88.2211C53.2444 88.5277 53.2085 88.8388 53.1727 89.1453C53.1368 89.4339 53.4058 89.7269 53.6659 89.799C53.9708 89.8847 54.2533 89.7359 54.4237 89.488C54.5448 89.3121 54.6658 89.1408 54.7869 88.965C54.8407 88.8838 54.899 88.8072 54.9528 88.7261C54.9752 88.6945 54.9976 88.6629 55.02 88.6314C55.1187 88.4961 55.1052 88.5051 54.9842 88.6584C54.8721 88.69 54.76 88.7215 54.6434 88.7486C54.6658 88.7486 54.6838 88.7486 54.7062 88.7486C54.5941 88.717 54.482 88.6855 54.3654 88.6584C54.2309 88.424 54.186 88.3789 54.2309 88.5232C54.2443 88.5773 54.2533 88.6359 54.2667 88.69C54.2892 88.8027 54.3116 88.9109 54.3385 89.0236C54.3878 89.258 54.4102 89.533 54.5313 89.7449C54.6479 89.9433 54.8407 90.1146 55.0649 90.1777C55.4102 90.2724 55.6926 90.0966 55.8944 89.8261C56.1141 89.533 55.9393 89.0687 55.6523 88.9019C55.307 88.699 54.9528 88.8523 54.7331 89.1453C54.7241 89.1589 54.7151 89.1724 54.7062 89.1814C54.899 89.0687 55.0918 88.956 55.2891 88.8478C55.2756 88.8478 55.2622 88.8523 55.2487 88.8523C55.3608 88.8838 55.4729 88.9154 55.5895 88.9425C55.7061 89.0011 55.7778 89.3302 55.7106 88.9966C55.6926 88.9019 55.6702 88.8117 55.6523 88.717C55.6164 88.5502 55.585 88.3834 55.5492 88.2166C55.4684 87.865 55.2577 87.5223 54.89 87.4186C54.482 87.3059 54.1591 87.5404 53.9305 87.8469C53.7018 88.158 53.4865 88.4781 53.2668 88.7937C53.6838 88.9064 54.1008 89.0191 54.5223 89.1363C54.5582 88.8297 54.5941 88.5187 54.6299 88.2121C54.6703 87.8469 54.2892 87.5359 53.9574 87.5359C53.5583 87.5449 53.3251 87.8605 53.2803 88.2211Z"
      fill="#727272" />
    <path
      d="M53.9259 75.8729C53.76 76.5942 53.6793 77.3336 53.6927 78.073C53.7017 78.7086 54.6344 79.0377 54.9482 78.4156C55.0828 78.1451 55.2173 77.8791 55.3518 77.6086C55.4504 77.4102 55.5222 77.1623 55.7015 77.0225C55.6029 77.0811 55.5042 77.1397 55.4056 77.1984C55.4056 77.1938 55.4056 77.1893 55.4101 77.1848C55.1948 77.018 54.9796 76.8557 54.7599 76.6889C54.8451 77.009 54.9303 77.3291 55.0155 77.6492C55.1231 78.0504 55.6388 78.2939 56.002 78.0549C56.0647 78.0144 56.1275 77.9693 56.1903 77.9287C56.9077 77.4508 56.2351 76.2787 55.5132 76.761C55.4504 76.8016 55.3877 76.8467 55.3249 76.8873C55.6522 77.0225 55.984 77.1578 56.3114 77.293C56.2262 76.9729 56.141 76.6528 56.0558 76.3328C55.9795 76.0487 55.7015 75.8323 55.4056 75.8368C54.4595 75.8549 54.1366 77.0361 53.7869 77.7394C54.2039 77.8521 54.6209 77.9648 55.0424 78.082C55.0334 77.4553 55.0872 76.8512 55.2262 76.2381C55.4146 75.386 54.1187 75.0253 53.9259 75.8729Z"
      fill="#727272" />
    <path
      d="M52.6435 65.7563C52.6749 66.2883 52.7018 66.8157 52.7332 67.3477C52.7691 68.015 53.621 68.2719 53.9887 67.6904C54.2488 67.2756 54.5089 66.8653 54.7689 66.4506C54.3833 66.4506 53.9932 66.4506 53.6076 66.4506C53.7017 66.6129 53.76 66.7616 53.769 66.951C53.8004 67.5461 54.4775 67.8301 54.9169 67.4289C55.2577 67.1223 55.4774 66.7526 55.6433 66.3243C55.316 66.4596 54.9842 66.5948 54.6568 66.7301C54.6568 66.7391 54.6568 66.7481 54.6523 66.7526C54.5941 66.6534 54.5358 66.5543 54.4775 66.4551C54.4909 66.4821 54.4999 66.5137 54.5133 66.5407C54.6523 66.8789 54.9573 67.1178 55.3429 67.0141C55.6567 66.9284 55.9527 66.5227 55.8137 66.1801C55.6971 65.9051 55.576 65.7383 55.3339 65.5579C54.9528 65.2739 54.4864 65.5985 54.3474 65.9637C54.2667 66.1711 54.1277 66.3243 53.9663 66.4731C54.3474 66.6309 54.7331 66.7932 55.1142 66.951C55.0918 66.5272 54.9842 66.135 54.7689 65.7698C54.5044 65.3235 53.8766 65.3415 53.6076 65.7698C53.3475 66.1846 53.0874 66.5948 52.8274 67.0096C53.2444 67.1223 53.6614 67.235 54.0829 67.3522C54.0515 66.8202 54.0246 66.2928 53.9932 65.7608C53.9394 64.8907 52.5942 64.8862 52.6435 65.7563Z"
      fill="#727272" />
    <path
      d="M53.0067 56.8162C52.9663 57.1588 52.9484 57.5014 52.9573 57.8441C52.9708 58.3129 53.5358 58.7457 53.9707 58.4302C54.1949 58.2679 54.3339 58.083 54.4101 57.817C54.4281 57.7539 54.446 57.6818 54.455 57.6187C54.4639 57.56 54.4998 57.5555 54.4505 57.6006C54.2173 57.817 53.9707 58.1281 53.5985 57.6773C53.6389 57.7269 53.6254 57.7223 53.5985 57.6637C53.6299 57.7314 53.6524 57.808 53.6837 57.8756C53.7375 57.9928 53.8183 58.0965 53.9079 58.1867C54.1859 58.4617 54.5985 58.5158 54.9348 58.322C55.2531 58.1416 55.3562 57.7088 55.1769 57.3977C54.9886 57.0777 54.576 56.974 54.2577 57.1543C54.2442 57.1633 54.2263 57.1723 54.2128 57.1813C54.3249 57.1498 54.437 57.1182 54.5536 57.0912C54.5895 57.0867 54.9123 57.267 54.8854 57.276C54.9034 57.3121 54.9034 57.3121 54.8899 57.2805C54.8765 57.2445 54.863 57.2084 54.8451 57.1723C54.7913 57.0416 54.7285 56.9199 54.6299 56.8117C54.4101 56.5817 54.0694 56.469 53.76 56.5682C53.4685 56.6584 53.2757 56.8928 53.1815 57.1768C53.1591 57.24 53.1502 57.3031 53.1322 57.3707C53.1232 57.4023 53.1143 57.4293 53.1098 57.4609C53.0919 57.5195 53.0919 57.5195 53.1143 57.4609C53.1412 57.3752 53.1995 57.3076 53.2892 57.2625C53.6254 57.4564 53.9617 57.6502 54.3025 57.8486C54.2936 57.5059 54.3115 57.1633 54.3518 56.8207C54.3967 56.469 54.0111 56.1309 53.6793 56.1444C53.2802 56.1625 53.056 56.442 53.0067 56.8162Z"
      fill="#727272" />
    <path
      d="M52.5941 49.8823C52.4686 50.3782 52.5314 50.8877 52.7959 51.325C53.1098 51.8569 53.8317 51.6946 54.0245 51.1627C54.0963 50.9643 53.9887 51.2844 54.0559 51.0815C54.0828 51.0049 54.1052 51.0409 54.038 51.0725C53.8317 51.1807 53.5537 51.1086 53.4909 50.8381C53.5761 51.1942 53.9752 51.4061 54.3205 51.3114C54.6792 51.2123 54.8765 50.8381 54.7913 50.4774C54.6702 49.9635 54.1142 49.6884 53.6165 49.8057C53.1277 49.9274 52.8901 50.3557 52.7287 50.7975C53.1367 50.7434 53.5492 50.6893 53.9573 50.6352C53.89 50.518 53.881 50.527 53.8676 50.3872C53.8766 50.4594 53.8721 50.3692 53.8721 50.3467C53.881 50.1483 53.8452 50.4278 53.89 50.234C53.9752 49.8913 53.7779 49.4856 53.4192 49.3999C53.0739 49.3278 52.6883 49.5126 52.5941 49.8823Z"
      fill="#727272" />
    <path
      d="M33.3671 48.2865C33.1698 48.548 32.9904 48.823 32.8335 49.1116C32.569 49.5849 33.0173 50.3243 33.5913 50.1034C33.7975 50.0268 33.9993 49.9456 34.2056 49.869C33.9321 49.7112 33.6541 49.5534 33.3761 49.3956C33.4119 49.4993 33.4299 49.5669 33.4254 49.6706C33.4209 50.0132 33.7393 50.3784 34.098 50.3468C34.4343 50.3198 34.7212 50.2386 35.0217 50.0944C35.349 49.9366 35.4342 49.4632 35.2638 49.1702C35.0665 48.8321 34.6719 48.7689 34.3446 48.9267C34.2773 48.9583 34.1518 48.9898 34.098 48.9944C34.3222 49.2198 34.5464 49.4452 34.7706 49.6706C34.775 49.4542 34.7437 49.2378 34.6719 49.0349C34.5598 48.7148 34.2056 48.4263 33.8424 48.5616C33.6361 48.6382 33.4344 48.7193 33.2281 48.796C33.4792 49.1251 33.7348 49.4587 33.9859 49.7878C34.1473 49.4993 34.3222 49.2243 34.5195 48.9628C34.7392 48.6698 34.5643 48.2054 34.2773 48.0386C33.941 47.8447 33.5868 47.9935 33.3671 48.2865Z"
      fill="#727272" />
    <path
      d="M29.5602 55.8786C29.3046 56.4421 29.0849 57.0192 28.9056 57.6143C28.7935 57.984 29.0401 58.3266 29.3764 58.4483C29.6634 58.552 29.9728 58.4889 30.2239 58.3266C30.3315 58.2544 30.4032 58.1823 30.4839 58.0876C30.7933 57.718 30.3673 58.1958 30.1162 57.8848C30.0579 57.7856 29.9997 57.6864 29.9414 57.5872C29.9055 57.461 29.9324 57.7225 29.9324 57.718C29.9458 57.8217 29.9728 57.9299 30.0266 58.0245C30.1297 58.2003 30.318 58.3446 30.5108 58.3987C30.874 58.4979 31.3404 58.3581 31.4973 57.9885C31.6408 57.6548 31.5959 57.2626 31.2552 57.0643C30.9727 56.8974 30.4794 56.9696 30.336 57.3077C30.3494 57.2897 30.3629 57.2716 30.3808 57.2581C30.4794 57.1995 30.5781 57.1409 30.6767 57.0823C30.8112 57.1229 30.9458 57.1634 31.0803 57.204C31.1386 57.3032 31.1969 57.4024 31.2552 57.5016C31.291 57.6278 31.2641 57.3167 31.2552 57.2852C31.2193 57.1499 31.1565 57.0282 31.0668 56.929C30.9009 56.7532 30.6857 56.6495 30.4436 56.636C30.2239 56.6269 30.0221 56.6901 29.8427 56.8163C29.7575 56.8749 29.6858 56.9425 29.6185 57.0237C29.3405 57.3483 29.5333 57.0733 29.7396 57.1454C29.8965 57.4249 30.0535 57.6999 30.2104 57.9794C30.3539 57.4971 30.5243 57.0282 30.7305 56.5683C30.8785 56.2347 30.8247 55.8425 30.4884 55.6441C30.1925 55.4683 29.7082 55.545 29.5602 55.8786Z"
      fill="#727272" />
    <path
      d="M28.0715 63.8539C27.928 64.6293 27.928 65.3822 28.0805 66.1576C28.1567 66.5408 28.5692 66.6851 28.91 66.631C29.1073 66.5994 29.2911 66.4867 29.4301 66.3379C29.4884 66.2748 29.5422 66.1982 29.5915 66.126C29.6184 66.0855 29.6409 66.0449 29.6633 65.9998C29.7036 65.9367 29.6902 65.9412 29.614 66.0043C29.4929 66.0043 29.3763 66.0043 29.2552 66.0043C29.2866 66.0133 29.318 66.0223 29.3494 66.0314C29.2508 65.9728 29.1521 65.9141 29.0535 65.8555C29.0041 65.7518 28.9997 65.7564 29.0445 65.8691C29.0669 65.9232 29.0893 65.9773 29.1118 66.0314C29.1835 66.1666 29.2821 66.2748 29.4077 66.356C29.7081 66.5588 29.9816 66.5453 30.3045 66.3965C30.6363 66.2478 30.717 65.7609 30.5466 65.4723C30.3493 65.1297 29.9592 65.0801 29.6274 65.2289C29.605 65.2379 29.5781 65.2514 29.5557 65.2604C29.7305 65.2379 29.9009 65.2154 30.0758 65.1928C30.0489 65.1838 30.022 65.1793 29.9951 65.1703C30.0937 65.2289 30.1924 65.2875 30.291 65.3461C30.3179 65.4363 30.3179 65.4453 30.2955 65.3777C30.2731 65.3055 30.2462 65.2379 30.2148 65.1748C30.1745 65.0981 30.1296 65.0215 30.0668 64.9584C29.8785 64.7555 29.6184 64.6608 29.3449 64.6879C29.1073 64.7104 28.8965 64.8276 28.7306 64.999C28.6499 65.0801 28.5827 65.1748 28.5244 65.274C28.5109 65.301 28.493 65.3281 28.4795 65.3551C28.3943 65.4814 28.4167 65.4678 28.5513 65.3191C28.8248 65.4768 29.1028 65.6346 29.3808 65.7924C29.2777 65.2695 29.2732 64.733 29.3718 64.21C29.4391 63.8493 29.2732 63.4797 28.901 63.376C28.5692 63.2903 28.1387 63.4932 28.0715 63.8539Z"
      fill="#727272" />
    <path
      d="M29.0311 73.6142C29.2194 73.9929 29.4033 74.3716 29.5916 74.7503C29.7575 75.0839 30.2104 75.1606 30.5108 74.9938C30.7529 74.8585 30.9188 74.6421 30.9951 74.3716C31.0309 74.2499 31.0533 74.0966 31.0399 73.9704C31.0264 73.8261 31.0892 73.8667 31.013 73.9343C30.9143 73.9929 30.8157 74.0515 30.717 74.1101C30.7081 74.1146 30.6991 74.1146 30.6901 74.1192C30.578 74.0876 30.4659 74.056 30.3494 74.029C30.5825 74.1642 30.6946 74.3806 31.0354 74.3806C31.439 74.3806 31.5286 74.1417 31.7708 73.9028C31.6721 73.9614 31.5735 74.02 31.4748 74.0786C31.3448 73.9974 31.2148 73.9163 31.0847 73.8306C31.1385 74.1913 31.5914 74.3897 31.9143 74.304C32.2999 74.1958 32.4389 73.8351 32.3851 73.47C32.3223 73.0642 31.9412 72.7622 31.5466 72.7216C31.0847 72.6765 30.7843 72.929 30.5646 73.3077C30.6453 73.2265 30.726 73.1454 30.8067 73.0642C30.7843 73.0822 30.7574 73.1003 30.735 73.1183C30.8471 73.0868 30.9592 73.0552 31.0758 73.0281C31.0533 73.0281 31.0264 73.0281 31.004 73.0281C31.1161 73.0597 31.2282 73.0913 31.3448 73.1183C31.2641 73.0732 31.0533 72.8433 30.874 72.7937C30.6184 72.7216 30.3494 72.7757 30.1386 72.9335C29.9503 73.0732 29.8203 73.2806 29.753 73.5015C29.7082 73.6413 29.7575 73.9253 29.6857 74.0245C29.7665 73.9433 29.8472 73.8622 29.9279 73.781C29.901 73.7946 29.8741 73.8126 29.8427 73.8261C30.1476 73.9073 30.457 73.9884 30.7619 74.0696C30.5736 73.6909 30.3897 73.3122 30.2014 72.9335C29.8068 72.149 28.6455 72.8343 29.0311 73.6142Z"
      fill="#727272" />
    <path
      d="M33.1832 83.6587C33.1608 84.2403 33.7617 84.5694 34.2683 84.4116C34.5105 84.335 34.6853 84.1637 34.8019 83.9473C34.8199 83.9112 34.8378 83.8706 34.8557 83.8346C34.9544 83.6768 34.8557 83.7219 34.5508 83.9788C34.4118 83.9608 34.4746 83.9608 34.5732 84.0149C34.8916 84.1907 35.3086 84.0915 35.4925 83.7715C35.6718 83.4604 35.5687 83.0231 35.2503 82.8472C34.9185 82.6624 34.5419 82.5542 34.1742 82.7075C33.9859 82.7886 33.8289 82.9239 33.7213 83.1042C33.6899 83.1538 33.6585 83.2124 33.6406 83.271C33.6316 83.2891 33.6227 83.3071 33.6137 83.3251C33.8468 83.0636 34.089 83.0411 34.3446 83.2575C34.4029 83.3567 34.4611 83.4559 34.5194 83.5551C34.5239 83.5911 34.5284 83.6272 34.5329 83.6633C34.5463 83.3071 34.2145 82.969 33.8603 82.987C33.4792 83.0005 33.1967 83.28 33.1832 83.6587Z"
      fill="#727272" />
    <path
      d="M58.0377 50.1576C58.1184 50.5634 58.2574 50.9421 58.4323 51.3163C58.5982 51.6634 59.0511 51.7085 59.3515 51.5597C59.5219 51.4741 59.6609 51.3208 59.7506 51.154C59.7775 51.1044 59.7954 51.0503 59.8223 50.9962C59.9658 50.6851 59.8179 51.154 59.4726 51.1179C59.3605 51.0863 59.2484 51.0548 59.1318 51.0277C59.0556 50.9917 59.2439 51.1134 59.2439 51.1134C59.3157 51.1675 59.365 51.199 59.4502 51.2351C59.625 51.3118 59.8044 51.3253 59.9927 51.2982C60.3963 51.2306 60.6339 50.9691 60.7864 50.604C60.9254 50.2658 60.6339 49.8601 60.3156 49.7699C59.93 49.6617 59.6295 49.9052 59.486 50.2433C59.643 49.9502 59.8403 49.8871 60.0734 50.0539C60.0555 50.0359 60.0376 50.0179 60.0152 50.0043C59.93 49.9187 59.7685 49.8285 59.652 49.797C59.4367 49.7384 59.2036 49.7744 59.0152 49.8871C58.8583 49.9818 58.7462 50.1306 58.67 50.2929C58.652 50.3335 58.6296 50.3785 58.6117 50.4236C58.5624 50.5679 58.5893 50.4326 58.67 50.3966C58.9749 50.4777 59.2843 50.5589 59.5892 50.64C59.4636 50.374 59.3874 50.0945 59.3291 49.806C59.2618 49.4453 58.8314 49.2424 58.4996 49.3326C58.1364 49.4273 57.9705 49.797 58.0377 50.1576Z"
      fill="#727272" />
    <path
      d="M59.598 57.8982C59.6832 58.3265 59.7729 58.7548 59.8581 59.1831C60.0016 59.8909 60.9477 59.7602 61.154 59.1831C61.2212 58.9892 61.3378 58.863 61.4858 58.7278C61.1316 58.6827 60.7818 58.6376 60.4276 58.5925C60.5442 58.863 60.6652 59.138 60.7818 59.4085C60.9163 59.7196 61.4365 59.8548 61.701 59.652C61.8624 59.5302 61.9925 59.422 62.0956 59.2417C62.1315 59.1786 62.1718 59.1019 62.1942 59.0298C62.2032 58.9983 62.2167 58.9667 62.2346 58.9397C62.3422 58.7413 62.136 58.6782 61.6113 58.7503C61.562 59.111 61.9566 59.4265 62.2839 59.4265C62.6875 59.4265 62.9072 59.1155 62.9565 58.7503C63.0327 58.1868 62.5081 57.6773 61.9656 57.6773C61.692 57.6773 61.4454 57.799 61.2616 57.9929C61.1764 58.0831 61.1181 58.1823 61.0598 58.2905C61.0239 58.3626 60.8849 58.588 61.0239 58.4843C61.3288 58.5655 61.6382 58.6466 61.9431 58.7278C61.8266 58.4573 61.7055 58.1823 61.5889 57.9118C61.4051 57.488 60.8177 57.515 60.5307 57.7765C60.2079 58.0695 60.0016 58.4212 59.8536 58.8269C60.2841 58.8269 60.719 58.8269 61.1495 58.8269C61.0643 58.3987 60.9746 57.9704 60.8894 57.5421C60.7235 56.6855 59.4232 57.0462 59.598 57.8982Z"
      fill="#727272" />
    <path
      d="M60.7774 68.2403C60.737 68.5784 60.7774 68.9256 60.8671 69.2502C60.9792 69.6424 61.4903 69.9084 61.8535 69.6559C62.0912 69.4891 62.2347 69.3088 62.3378 69.0383C62.3647 68.9707 62.3871 68.8985 62.4095 68.8264C62.4499 68.6821 62.4095 68.876 62.293 68.894C62.1719 68.894 62.0553 68.894 61.9342 68.894C61.8221 68.8489 61.7504 68.7813 61.7325 68.6821C61.719 68.6371 61.7235 68.6506 61.7504 68.7227C61.7639 68.7633 61.7773 68.8084 61.7908 68.8489C61.867 69.0563 61.9746 69.2231 62.145 69.3629C62.5127 69.6604 62.9297 69.6109 63.2884 69.3313C63.5754 69.1059 63.5216 68.61 63.2884 68.3756C63.0059 68.0915 62.6248 68.1502 62.3378 68.3756C62.3243 68.3891 62.3064 68.3981 62.293 68.4116C62.3916 68.353 62.4902 68.2944 62.5889 68.2358C62.571 68.2403 62.553 68.2448 62.5351 68.2493C62.6562 68.2493 62.7727 68.2493 62.8938 68.2493C62.9745 68.2629 63.0911 68.5108 63.0418 68.362C63.0059 68.2448 62.9611 68.1231 62.8983 68.0194C62.71 67.7129 62.3781 67.537 62.0239 67.5731C61.71 67.6047 61.4545 67.803 61.2841 68.0645C61.2123 68.1772 61.163 68.3034 61.1226 68.4297C61.1092 68.4702 61.0823 68.5289 61.0778 68.5694C61.0733 68.628 61.0644 68.5559 61.1765 68.4793C61.5038 68.6145 61.8356 68.7498 62.1629 68.885C62.1001 68.6641 62.0912 68.4657 62.1181 68.2358C62.1584 67.8706 61.7773 67.5596 61.4455 67.5596C61.0554 67.5641 60.8222 67.8752 60.7774 68.2403Z"
      fill="#727272" />
    <path
      d="M60.4053 76.202C60.3694 76.6438 60.4053 77.0766 60.4725 77.5139C60.5532 78.0234 61.2752 78.1541 61.598 77.8115C61.7146 77.6898 61.8356 77.568 61.9612 77.4553C62.0733 77.3561 62.1899 77.257 62.2796 77.1938C61.9522 77.0586 61.6204 76.9233 61.2931 76.7881C61.3334 76.9053 61.3334 76.7701 61.32 76.8963C61.329 76.8016 61.2662 76.9819 61.311 76.9053C61.1362 77.2254 61.2348 77.6447 61.5532 77.8295C61.8626 78.0098 62.2975 77.9107 62.4724 77.5861C62.6652 77.2299 62.728 76.8151 62.5934 76.4274C62.4634 76.0577 61.9791 75.7467 61.607 76.0217C61.2662 76.2741 60.9478 76.5446 60.6564 76.8512C61.033 76.9504 61.4052 77.0496 61.7818 77.1488C61.737 76.8557 61.737 76.5131 61.7594 76.193C61.7863 75.8413 61.4321 75.5032 61.0868 75.5168C60.6922 75.5438 60.4367 75.8233 60.4053 76.202Z"
      fill="#727272" />
    <path
      d="M59.9747 85.0339C59.7326 85.4442 59.5487 85.895 59.4456 86.3639C59.3649 86.72 59.5532 87.0942 59.9164 87.1979C60.2931 87.3016 60.6159 87.0717 60.746 86.7245C60.7863 86.6118 60.9208 86.3684 60.9926 86.2737C60.6742 86.2737 60.3603 86.2737 60.042 86.2737C59.9613 86.1745 59.9388 86.0663 59.9702 85.9401C59.9119 86.3008 60.0644 86.6659 60.441 86.7741C60.7639 86.8643 61.2078 86.6659 61.2706 86.3008C61.3333 85.9266 61.2661 85.5975 60.9971 85.3179C60.7639 85.0745 60.2707 85.0339 60.0465 85.3179C59.7864 85.6425 59.5981 85.9716 59.4501 86.3639C59.8806 86.4856 60.3155 86.6028 60.746 86.7245C60.8311 86.3458 60.9432 86.0483 61.1405 85.7192C61.3244 85.4036 61.2123 84.9753 60.8984 84.795C60.58 84.6056 60.163 84.7183 59.9747 85.0339Z"
      fill="#727272" />
    <path
      d="M64.8982 87.7343C64.6202 88.0995 64.4901 88.5504 64.4677 89.0057C64.4543 89.2717 64.6471 89.5287 64.8802 89.6233C65.1448 89.7315 65.4004 89.6684 65.6156 89.4836C65.9474 89.1995 66.2792 88.911 66.611 88.627C66.2568 88.5819 65.907 88.5368 65.5528 88.4917C65.5259 88.4512 65.5394 88.3926 65.5439 88.3475C65.5483 88.3159 65.6201 88.2077 65.5483 88.3204C65.3555 88.6315 65.4811 89.0643 65.7905 89.2446C66.1133 89.434 66.5169 89.3123 66.7097 89.0012C66.9384 88.636 66.9339 88.1717 66.7142 87.802C66.4765 87.4052 65.9878 87.3827 65.656 87.6667C65.3241 87.9507 64.9923 88.2393 64.6605 88.5233C65.0416 88.6811 65.4273 88.8434 65.8084 89.0012C65.8174 88.7983 65.7725 89.0913 65.8174 88.8975C65.8353 88.8299 65.8532 88.7577 65.8757 88.6901C65.8398 88.7848 65.9295 88.5954 65.9295 88.5909C65.9653 88.5278 66.0057 88.4692 66.0505 88.4151C66.2702 88.1221 66.0954 87.6577 65.8084 87.4909C65.4721 87.288 65.1224 87.4413 64.8982 87.7343Z"
      fill="#727272" />
    <path
      d="M67.3823 78.88C67.2881 79.3939 67.2343 79.9124 67.2298 80.4398C67.2208 81.1025 68.158 81.373 68.4853 80.7825C68.6871 80.4128 68.9247 80.0927 69.2207 79.7951C68.9472 79.8312 68.6781 79.8673 68.4046 79.8988C68.3911 79.8898 68.3732 79.8763 68.3598 79.8673C68.3015 79.7681 68.2432 79.6689 68.1849 79.5697C68.1714 79.5292 68.2163 79.4029 68.1714 79.5472C68.14 79.6373 68.1221 79.7816 68.1176 79.8673C68.1087 80.0837 68.1714 80.2956 68.297 80.4714C68.4405 80.6652 68.6781 80.796 68.9247 80.796C69.0593 80.796 69.2162 80.7554 69.3328 80.6923C69.3552 80.6788 69.3731 80.6698 69.3955 80.6562C69.5032 80.5886 69.4718 80.5841 69.3014 80.6427C69.1893 80.6111 69.0772 80.5796 68.9606 80.5525C68.7812 80.4624 68.7678 80.3587 68.7857 80.2279C68.7364 80.5886 68.8754 80.9538 69.2565 81.062C69.5704 81.1476 70.0323 80.9538 70.0861 80.5886C70.1399 80.2009 70.1219 79.8087 69.826 79.5156C69.678 79.3714 69.4538 79.2857 69.2476 79.2902C69.1131 79.2947 68.9561 79.3398 68.8395 79.4029C68.8081 79.421 68.6602 79.4841 68.7454 79.466C68.8664 79.466 68.983 79.466 69.1041 79.466C69.0862 79.4615 69.0637 79.4525 69.0458 79.448C69.1444 79.5066 69.2431 79.5652 69.3417 79.6238C69.3866 79.998 69.4269 80.0927 69.4673 79.9078C69.4852 79.8628 69.4942 79.8177 69.5032 79.7681C69.5256 79.6644 69.5345 79.5562 69.5256 79.448C69.5076 79.1505 69.3552 78.8664 69.0817 78.7357C68.8126 78.6004 68.4898 78.6185 68.2656 78.8394C67.8934 79.2136 67.5751 79.6373 67.3195 80.0972C67.7365 80.2099 68.1535 80.3226 68.575 80.4398C68.5795 80.0386 68.6109 79.6373 68.6826 79.2406C68.7454 78.88 68.584 78.5103 68.2118 78.4066C67.88 78.3164 67.445 78.5193 67.3823 78.88Z"
      fill="#727272" />
    <path
      d="M68.288 69.5704C68.0952 70.0348 68.0907 70.5622 68.2387 71.0401C68.445 71.6983 69.3148 71.6668 69.5346 71.0401C69.6467 70.7155 69.8484 70.4585 70.104 70.2331C69.7229 70.0753 69.3373 69.913 68.9561 69.7553C68.9696 69.9852 68.9875 70.2151 69.001 70.4405C69.0279 70.8372 69.2879 71.0717 69.6736 71.1168C69.8888 71.1438 70.0861 71.0717 70.2654 70.9545C70.3417 70.9049 70.4089 70.8463 70.4672 70.7786C70.4896 70.7471 70.5165 70.72 70.539 70.693C70.6197 70.6073 70.5524 70.6254 70.3327 70.7471C70.2206 70.7155 70.1085 70.684 69.9919 70.6569C69.956 70.6163 69.9157 70.5758 69.8798 70.5352C69.8484 70.4225 69.817 70.3098 69.7901 70.1926C69.7901 70.2106 69.7901 70.2286 69.7946 70.2467C69.826 70.134 69.8574 70.0212 69.8843 69.904C69.8753 69.9176 69.8664 69.9356 69.8574 69.9491C69.4 70.693 70.5659 71.3737 71.0187 70.6299C71.2878 70.1926 71.0636 69.6245 70.5928 69.4532C70.3461 69.363 70.095 69.3811 69.8664 69.5073C69.7722 69.5569 69.6915 69.629 69.6153 69.7057C69.5973 69.7237 69.5839 69.7462 69.5659 69.7643C69.4763 69.8544 69.5121 69.8544 69.6736 69.7643C69.8978 69.9897 70.122 70.2151 70.3461 70.4405C70.3327 70.2106 70.3148 69.9807 70.3013 69.7553C70.261 69.1556 69.6018 68.8806 69.1534 69.2774C68.723 69.6606 68.427 70.1385 68.2387 70.6795C68.6692 70.6795 69.1041 70.6795 69.5346 70.6795C69.4494 70.4044 69.4763 70.1926 69.5839 69.9311C69.7229 69.593 69.4314 69.1872 69.1131 69.097C68.7274 68.9888 68.427 69.2323 68.288 69.5704Z"
      fill="#727272" />
    <path
      d="M67.7275 57.7178C67.7634 58.0964 67.8037 58.4797 67.8396 58.8584C67.871 59.192 68.0683 59.4805 68.4225 59.5211C68.7454 59.5617 69.0772 59.3678 69.1624 59.0387C69.2341 58.7502 69.3328 58.4887 69.4762 58.2317C69.0906 58.2317 68.7005 58.2317 68.3149 58.2317C68.3822 58.3579 68.4494 58.4842 68.5122 58.6059C68.7588 59.0702 69.4135 59.0161 69.6735 58.6059C69.696 58.5698 69.7273 58.5383 69.7273 58.5247C69.7991 58.4616 69.7498 58.4661 69.5883 58.5383C69.5166 58.5788 69.4449 58.5879 69.3731 58.5743C69.2924 58.4932 69.2117 58.412 69.131 58.3309C69.1265 58.3128 69.122 58.2948 69.1175 58.2768C69.3776 59.1018 70.6779 58.7502 70.4134 57.9161C70.2789 57.4923 69.9112 57.2263 69.4628 57.2399C69.0278 57.2534 68.7229 57.578 68.5077 57.9206C68.8933 57.9206 69.2834 57.9206 69.6691 57.9206C69.6018 57.7944 69.5345 57.6682 69.4718 57.5464C69.2386 57.1046 68.5481 57.1091 68.3104 57.5464C68.1176 57.9026 67.9652 58.2813 67.862 58.678C68.3014 58.7366 68.7409 58.7997 69.1848 58.8584C69.1489 58.4797 69.1086 58.0964 69.0727 57.7178C69.0368 57.3526 68.7902 57.0415 68.4001 57.0415C68.0638 57.0415 67.6916 57.3526 67.7275 57.7178Z"
      fill="#727272" />
    <path
      d="M64.3959 50.1575C64.5663 50.5902 64.7771 50.9509 65.073 51.3116C65.4138 51.7263 66.055 51.4558 66.1985 51.014C66.3016 50.6894 66.3465 50.3378 66.3151 49.9997C65.8981 50.1124 65.4811 50.2251 65.0596 50.3423C65.1896 50.5948 65.3735 50.8247 65.5932 51.005C65.8757 51.2349 66.2702 51.28 66.5438 51.005C66.7814 50.7661 66.8262 50.2792 66.5438 50.0493C66.463 49.9861 66.3868 49.914 66.324 49.8374C66.2568 49.7517 66.3644 49.905 66.3061 49.8103C66.2747 49.7607 66.2478 49.7111 66.2209 49.6615C66.0819 49.391 65.7366 49.2693 65.4586 49.346C65.1941 49.4181 64.9385 49.7066 64.9654 49.9997C64.9923 50.2837 64.9833 50.3964 64.8982 50.6534C65.2748 50.5542 65.647 50.455 66.0236 50.3558C65.9653 50.2882 65.907 50.2025 65.8398 50.0853C65.8084 50.0312 65.777 49.9726 65.7456 49.9185C65.7366 49.905 65.6649 49.7337 65.6873 49.8013C65.5528 49.4632 65.2389 49.2242 64.8578 49.3279C64.5439 49.4136 64.2614 49.8148 64.3959 50.1575Z"
      fill="#727272" />
    <path
      d="M71.1891 49.6345C71.2429 49.9185 71.3506 50.1935 71.4985 50.446C71.651 50.703 71.9693 50.8382 72.2563 50.7571C72.5612 50.6714 72.7226 50.4054 72.7495 50.1034C72.7809 49.7878 72.8123 49.4677 72.8437 49.1521C72.5074 49.346 72.1711 49.5398 71.8303 49.7382C72.0366 49.8915 72.2429 50.0493 72.4491 50.2025C72.7406 50.4189 73.2024 50.2521 73.3683 49.9591C73.5701 49.6165 73.4177 49.2513 73.1262 49.0349C72.9199 48.8816 72.7137 48.7238 72.5074 48.5705C72.3191 48.4308 72.0187 48.4578 71.8303 48.5705C71.6106 48.7013 71.5209 48.9087 71.4985 49.1566C71.4671 49.4722 71.4358 49.7923 71.4044 50.1079C71.8214 49.9952 72.2384 49.8824 72.6599 49.7652C72.5523 49.5849 72.5254 49.4992 72.485 49.2783C72.4177 48.9177 71.9873 48.7148 71.6555 48.805C71.2878 48.9041 71.1264 49.2738 71.1891 49.6345Z"
      fill="#727272" />
    <path
      d="M74.1753 57.7494C74.2381 58.1236 74.3278 58.4843 74.4488 58.8449C74.5878 59.2732 75.0362 59.4536 75.4353 59.2507C75.6819 59.1245 75.8389 58.89 75.9016 58.624C75.933 58.5023 75.9375 58.3716 75.9465 58.2408C75.9465 58.1957 75.951 58.1507 75.9554 58.1056C75.9465 58.2949 75.8209 58.4167 75.5743 58.4798C75.4622 58.4482 75.3501 58.4167 75.2335 58.3896C75.7626 58.6511 76.1752 58.8269 76.7805 58.6917C77.6235 58.5023 77.2692 57.1949 76.4218 57.3888C76.211 57.4384 76.09 57.3121 75.9106 57.222C75.5967 57.0687 75.238 57.0912 74.9645 57.3076C74.7582 57.4699 74.6641 57.6953 74.6282 57.9523C74.6147 58.0515 74.6103 58.1462 74.6013 58.2453C74.5923 58.331 74.5968 58.3355 74.6058 58.2679C74.5609 58.4212 74.6103 58.358 74.7582 58.0875C75.0856 58.2228 75.4174 58.358 75.7447 58.4933C75.6281 58.1326 75.5384 57.772 75.4712 57.3978C75.4084 57.0371 74.969 56.8342 74.6417 56.9244C74.265 57.0191 74.1126 57.3888 74.1753 57.7494Z"
      fill="#727272" />
    <path
      d="M75.7403 67.5325C75.6955 67.8752 75.6461 68.2178 75.6013 68.5604C75.5609 68.8625 75.6282 69.16 75.9107 69.3223C76.1439 69.4621 76.5474 69.4486 76.7268 69.2186C76.8254 69.0879 76.9241 68.9797 77.081 68.9256C76.7985 68.7092 76.5115 68.4928 76.229 68.2719C76.238 68.5424 76.2425 68.8129 76.2515 69.0834C76.2649 69.5342 76.6685 69.8408 77.1034 69.7371C77.3186 69.6875 77.498 69.5793 77.6684 69.4441L77.8343 69.3133C77.8208 69.2953 77.6056 69.3088 77.5563 69.2547C77.498 69.1555 77.4397 69.0563 77.3814 68.9572C77.3904 68.9797 77.3949 69.0022 77.4038 69.0248C77.6863 69.8408 78.9867 69.4891 78.6997 68.6641C78.5428 68.2178 78.184 67.9653 77.7087 67.9789C77.5159 67.9834 77.3142 68.0465 77.1483 68.1457C77.0137 68.2268 76.8882 68.3936 76.7357 68.4297C77.0182 68.6461 77.3052 68.8625 77.5877 69.0834C77.5787 68.8129 77.5742 68.5424 77.5653 68.2719C77.5563 67.8571 77.1393 67.4739 76.7133 67.6182C76.3411 67.7489 76.0093 67.9473 75.7672 68.2629C76.1439 68.4838 76.516 68.7002 76.8927 68.9211C76.9375 68.5785 76.9868 68.2358 77.0317 67.8932C77.081 67.5325 76.9465 67.1674 76.5609 67.0592C76.256 66.9735 75.7896 67.1674 75.7403 67.5325Z"
      fill="#727272" />
    <path
      d="M73.8078 78.7311C73.7136 79.1144 73.6194 79.4976 73.5298 79.8808C73.4446 80.2324 73.6374 80.6201 74.0006 80.7148C74.3234 80.8005 74.6328 80.7373 74.8974 80.5255C75.1081 80.3541 75.1843 80.0881 75.3771 79.9213C75.2785 79.9799 75.1798 80.0386 75.0812 80.0972C75.1126 80.0836 75.144 80.0701 75.1798 80.0566C75.0588 80.0566 74.9422 80.0566 74.8211 80.0566C74.8525 80.0611 74.8839 80.0701 74.9198 80.0746C74.7853 79.9709 74.6507 79.8672 74.5162 79.7635C74.5072 79.7094 74.5117 79.723 74.5252 79.8131C74.5566 79.8898 74.588 79.9664 74.6238 80.0431C74.7135 80.1918 74.8525 80.2955 75.005 80.3632C75.1664 80.4353 75.3457 80.4443 75.5206 80.4082C75.5789 80.4037 75.6372 80.3857 75.691 80.3632C75.9556 80.2775 75.9018 80.2504 75.5296 80.2865C75.4489 80.2054 75.3682 80.1242 75.2875 80.0431C75.2964 80.0566 75.3099 80.0746 75.3188 80.0881C75.2875 79.9754 75.2561 79.8627 75.2292 79.7455C75.2292 79.7635 75.2292 79.7861 75.2247 79.8041C75.1843 80.6742 76.5295 80.6742 76.5699 79.8041C76.5878 79.4344 76.3367 79.1234 75.9914 79.0152C75.83 78.9656 75.6507 78.9611 75.4847 79.0016C75.4265 79.0152 75.1978 79.0603 75.265 79.0693C75.3771 79.1008 75.4892 79.1324 75.6058 79.1594C75.5834 79.1459 75.5655 79.1279 75.543 79.1143C75.6237 79.1955 75.7045 79.2766 75.7852 79.3578C75.7538 79.2947 75.682 79.0557 75.5699 78.9385C75.3906 78.7582 75.0633 78.677 74.8211 78.7447C74.6238 78.7988 74.4534 78.916 74.3189 79.0648C74.2472 79.1459 74.1844 79.2361 74.1306 79.3307C74.1127 79.3623 74.0992 79.3939 74.0813 79.4209C73.9557 79.5922 74.0499 79.5877 74.3638 79.4029C74.5207 79.6824 74.6776 79.9574 74.8346 80.2369C74.9287 79.8537 75.0229 79.4705 75.1126 79.0873C75.3099 78.2442 74.014 77.8836 73.8078 78.7311Z"
      fill="#727272" />
    <path
      d="M72.3818 86.8642C72.4804 86.9408 72.5791 87.0174 72.6777 87.0941C72.9647 87.3195 73.431 87.1392 73.5969 86.8506C73.7987 86.5035 73.6462 86.1473 73.3548 85.9264C73.2561 85.8498 73.1575 85.7731 73.0588 85.6965C72.7719 85.4711 72.3055 85.6514 72.1396 85.94C71.9379 86.2871 72.0948 86.6387 72.3818 86.8642Z"
      fill="#727272" />
  </g>
  <g clip-path="url(#clip1_104_843)">
    <path
      d="M42.2992 44.7374C42.8584 40.1054 39.6253 36.647 36.1803 33.9798C34.1737 32.4239 32.2122 31.1259 30.9046 28.8988C30.2372 27.7564 29.5969 26.4672 29.2226 25.2003C28.4922 22.7332 29.7547 18.8569 32.8796 21.7019C34.6787 23.3422 35.0936 25.4581 36.4689 27.2807C37.2444 28.312 38.4349 28.8632 39.6749 28.2053C43.404 26.2316 40.5181 19.3858 39.6839 16.6653C38.6738 13.3714 38.1418 10.2019 39.8417 7.03235C40.4009 5.99215 41.0276 4.92083 41.7446 3.98287C42.209 3.37831 42.7997 2.72485 43.4626 2.30699C44.8334 1.43571 45.6585 1.43571 47.1736 1.89802C48.7879 2.39145 48.8014 2.47591 49.1306 4.0051C49.2839 4.7119 49.347 5.48983 49.3831 6.21886C49.4598 7.76138 49.3335 9.31724 49.0134 10.8331C48.4136 13.7092 46.6866 16.2519 46.3079 19.1725C46.0283 21.3196 46.2222 28.1431 49.8115 27.503C54.0185 26.7517 53.7164 20.0927 57.9099 19.2036C61.4 18.4612 63.1045 22.2442 61.6255 24.8402C60.8229 26.2538 59.4882 27.3474 58.203 28.312C55.9124 30.0323 53.1122 30.9303 50.8621 32.6684C46.7903 35.8246 48.1431 40.7855 49.816 44.853C50.1407 45.6398 51.4483 45.2931 51.1191 44.4974C49.9919 41.7546 48.576 38.3984 50.1001 35.5179C51.5114 32.8507 55.236 31.9172 57.6394 30.3435C60.886 28.2187 65.544 24.2179 62.7934 20.0082C60.4937 16.4831 56.0386 17.6611 53.9374 20.6128C53.3016 21.5063 52.8101 22.4887 52.2464 23.4266C51.9894 23.8534 51.7324 24.2846 51.4303 24.6846C51.2138 24.9425 50.9974 25.1959 50.781 25.4537C49.072 25.8271 48.1882 25.3781 48.1296 24.0979C46.4161 20.5061 48.4903 16.8254 49.6537 13.5136C50.5194 11.0509 50.8892 8.42818 50.7043 5.82767C50.578 4.02732 50.3887 1.5913 48.6707 0.515535C47.1601 -0.431314 44.8379 0.111013 43.3544 0.848933C41.1449 1.95137 39.7921 4.2896 38.6738 6.37C35.8015 11.7133 38.7009 16.4208 39.7696 21.8041C39.9094 22.5198 40.2656 24.089 40.0266 24.8847C39.2961 25.5426 38.5656 26.1961 37.8306 26.854C37.4113 26.325 37.0956 25.7471 36.8747 25.1114C36.4508 24.1823 36.0044 23.3155 35.3867 22.4887C34.4127 21.1817 32.5729 19.0347 30.6926 19.1414C28.8664 19.248 27.7932 21.1506 27.5993 22.7376C27.3107 25.0847 28.5868 27.5874 29.7412 29.5789C32.9427 35.0955 41.8663 37.1271 40.9465 44.7463C40.8473 45.5865 42.2 45.582 42.2992 44.7374Z"
      fill="#46A358" />
    <path
      d="M53.987 22.573C54.961 17.7054 53.1212 13.2557 52.738 8.45031C52.508 5.57865 53.748 0.986648 57.689 2.29357C60.6245 3.26709 61.7383 6.71664 61.5399 9.47718C61.3956 11.4953 60.4126 17.4165 64.3536 16.8653C67.7354 16.3941 69.4805 10.8374 71.1218 8.48143C72.5287 6.46326 75.6355 3.51603 78.3681 4.33841C82.6969 5.64088 79.9237 10.7619 77.9307 12.7756C74.5713 16.1674 70.9911 19.1679 68.0285 22.9464C66.3106 25.138 64.8225 28.7387 68.6328 29.7211C70.0982 30.0989 71.5096 29.5966 72.8308 29.0009C73.895 28.5209 74.9095 27.9474 76.0413 27.6318C78.1065 27.0539 80.5009 27.5073 79.1346 30.0367C75.9376 35.9623 68.6192 31.5926 63.8981 34.0775C59.894 36.189 58.9606 40.8566 59.3394 44.9507C59.416 45.7997 60.7733 45.8086 60.6921 44.9507C60.4261 42.0968 60.6561 39.0118 62.6581 36.7491C65.2464 33.8241 68.7004 34.891 72.1274 34.8243C75.6265 34.7576 80.1311 33.0862 80.8571 29.2321C81.6507 25.0091 76.7718 25.827 74.2692 26.845C73.1645 27.294 72.1319 27.9919 70.9775 28.3208C70.0622 28.5831 68.6147 28.7253 67.8933 27.8763C67.1943 27.0495 67.758 25.6581 68.1909 24.9557C69.7736 22.3774 72.1995 20.0259 74.3549 17.9055C77.3264 14.9805 82.3947 11.8776 81.9574 7.10783C81.6237 3.45824 78.2057 2.1202 75.0538 3.48935C73.16 4.31174 71.5953 5.61865 70.3598 7.25008C68.7455 9.37938 67.8842 12.3044 65.9588 14.1803C65.2644 14.856 64.5835 16.2918 63.0324 14.8827C62.3425 14.2559 62.5499 12.5844 62.6221 11.7265C62.7167 10.6018 62.9602 9.50385 62.9242 8.3703C62.8655 6.45437 62.2207 4.51177 60.9627 3.02704C58.3023 -0.102451 53.7345 0.0353538 51.9669 3.96056C50.9118 6.30768 51.3762 8.99264 51.8181 11.4287C52.4674 15.0249 53.4188 18.5545 52.6839 22.2174C52.517 23.0576 53.8202 23.4176 53.987 22.573Z"
      fill="#46A358" />
    <path
      d="M53.6849 31.0059C53.0491 35.589 52.0075 40.0787 50.5556 44.4796C50.285 45.2975 51.5927 45.6487 51.8587 44.8352C53.3107 40.4344 54.3523 35.9446 54.9881 31.3615C55.1053 30.5169 53.8022 30.1568 53.6849 31.0059Z"
      fill="#46A358" />
    <path
      d="M37.506 43.9728C37.3302 40.4432 34.8456 38.0605 31.9868 36.2468C30.1335 35.0688 28.1044 34.0864 26.5127 32.5528C25.8273 31.8949 24.5512 30.6191 24.4835 29.5967C24.2536 26.1871 28.4787 28.841 29.4166 29.6278C30.0749 30.1835 31.0354 29.241 30.3725 28.6854C28.898 27.4451 26.2511 25.8315 24.2265 26.765C22.5942 27.5163 22.8647 29.3788 23.4915 30.7213C26.1294 36.4247 35.8061 37.0781 36.1533 43.9728C36.1938 44.8263 37.5511 44.8307 37.506 43.9728Z"
      fill="#46A358" />
    <path
      d="M67.8392 45.293C69.5256 42.7859 71.7486 40.7366 74.4722 39.3585C76.9522 38.105 80.0275 37.8871 82.2234 36.1135C84.7441 34.0775 84.8748 29.0855 80.7038 29.2144C79.8336 29.241 79.8336 30.5746 80.7038 30.548C82.3497 30.7702 83.017 31.6682 82.7149 33.2374C82.3767 34.1398 81.8041 34.851 80.9969 35.3667C80.0094 36.0557 78.81 36.3713 77.6737 36.7269C76.2262 37.1803 74.8149 37.656 73.4757 38.3672C70.689 39.852 68.4119 42.0302 66.6668 44.6218C66.1843 45.3375 67.3567 46.0043 67.8392 45.293Z"
      fill="#46A358" />
    <path
      d="M71.5142 33.5619C65.783 34.6287 63.6682 40.252 62.3109 45.173C62.081 46.0043 63.3886 46.3554 63.6141 45.5286C64.8496 41.0522 66.6307 35.8245 71.8749 34.851C72.7271 34.6865 72.3664 33.4018 71.5142 33.5619Z"
      fill="#46A358" />
    <path
      d="M41.2937 13.2647C40.6218 10.602 41.4605 7.68585 43.6339 5.89884C44.0713 5.52099 44.5673 5.23205 45.1129 5.03201C46.6145 5.34762 47.3134 6.13889 47.2097 7.4058C47.2368 8.14372 47.0925 8.87275 46.9166 9.584C46.5604 11.0198 45.9336 12.3845 45.4692 13.7893C44.2742 17.4077 42.5562 23.3244 45.7848 26.405C46.0959 26.7029 46.5784 26.2317 46.2628 25.9338C43.431 23.2355 44.883 18.0479 45.8524 14.8161C46.6911 12.0156 48.9683 8.29486 47.4307 5.35207C46.2312 3.05829 43.4806 4.92087 42.3127 6.26336C40.5857 8.25041 40.0041 10.922 40.6398 13.4425C40.7481 13.8604 41.3974 13.6826 41.2937 13.2647Z"
      fill="#46A358" />
    <path
      d="M55.5878 24.0623C55.9756 23.2132 56.7602 22.013 57.8108 21.8707C59.4116 21.6529 60.2367 23.6355 59.38 24.9469C58.5729 26.1827 57.0352 27.0451 55.7095 27.5741C53.5046 28.4498 52.0255 29.6589 50.4248 31.3881C50.1317 31.7038 50.6097 32.1794 50.9028 31.8593C51.8722 30.8058 52.8643 29.7123 54.1268 28.9832C55.1324 28.4009 56.3002 28.1742 57.3103 27.6052C58.5413 26.9073 60.5343 25.4003 60.6786 23.88C60.7959 22.6531 59.4837 21.2306 58.2572 21.155C56.7782 21.0617 55.5427 22.5553 55.0061 23.7289C54.8257 24.1112 55.4119 24.4535 55.5878 24.0623Z"
      fill="#46A358" />
    <path
      d="M30.3004 24.8358C30.4492 23.6667 30.8956 23.2355 31.6351 23.5511C31.8966 23.5556 32.113 23.6489 32.2934 23.8312C32.6496 24.0623 32.8841 24.4046 33.096 24.7647C33.4748 25.4093 33.6507 26.1605 33.9302 26.8451C34.2865 27.7253 34.7554 28.441 35.5626 28.9655C35.9278 29.2055 36.266 28.6277 35.9053 28.3876C33.9212 27.0896 34.4758 23.72 31.9958 22.9021C30.5078 22.4131 29.0107 23.6845 29.7187 25.1692C29.9036 25.5604 30.4852 25.2226 30.3004 24.8358Z"
      fill="#46A358" />
    <path
      d="M54.5326 7.58367C54.1809 5.66329 56.2326 4.13411 57.8018 5.53438C58.6675 6.30786 59.0012 7.73036 59.0057 8.84169C59.0147 10.3486 58.3158 11.6956 58.6134 13.207C58.6946 13.6293 59.3484 13.4515 59.2673 13.0292C58.893 11.131 59.9662 9.31289 59.4837 7.34362C59.1951 6.16561 58.6089 4.85425 57.3734 4.40972C55.1459 3.61401 53.5091 5.73887 53.8788 7.75703C53.96 8.17934 54.6093 8.00152 54.5326 7.58367Z"
      fill="#46A358" />
    <path
      d="M54.1944 11.98C55.2946 14.2605 55.8357 16.2609 55.7546 18.7902C55.741 19.2214 56.4174 19.217 56.4309 18.7902C56.5166 16.1319 55.9304 14.0293 54.7806 11.6466C54.5912 11.2599 54.0095 11.5977 54.1944 11.98Z"
      fill="#46A358" />
    <path
      d="M71.7351 10.0729C72.389 8.60153 73.6245 7.67246 75.0539 6.97455C75.4642 6.76117 75.8881 6.5878 76.33 6.45C78.2373 7.09012 78.7198 7.97474 77.7774 9.11274C77.3265 9.81065 76.6727 10.4374 76.109 11.0509C73.9627 13.3847 71.6449 15.5451 69.1965 17.5633C68.8628 17.8389 69.3408 18.3101 69.6744 18.0345C71.8884 16.2119 73.9942 14.2737 75.9602 12.1933C77.1416 10.9442 79.4097 9.09051 78.9137 7.1168C77.9262 3.20493 71.9786 7.86805 71.1489 9.73952C70.9776 10.1263 71.5638 10.4641 71.7351 10.0729Z"
      fill="#46A358" />
    <path
      d="M67.9158 19.9858C65.7559 21.5506 64.4437 23.831 64.1957 26.4582C64.1551 26.885 64.8315 26.8805 64.8721 26.4582C65.0976 24.0844 66.306 21.9729 68.2585 20.5593C68.6057 20.3104 68.2675 19.728 67.9158 19.9858Z"
      fill="#46A358" />
    <path
      d="M72.195 31.1082C72.6369 30.8459 73.0788 30.5703 73.5433 30.3436C73.895 30.1524 74.2648 30.0057 74.6525 29.9035C75.3785 29.6056 75.622 30.1613 75.3785 31.5705C74.9006 32.4995 72.3123 32.5351 71.5097 32.4862C69.5031 32.3706 67.6137 31.8283 65.6342 32.4284C65.2194 32.5529 65.3952 33.1974 65.8146 33.073C68.1909 32.3484 70.5041 33.4019 72.903 33.1397C74.2061 32.993 76.0504 32.4017 76.6997 31.1571C77.0604 30.4636 76.9748 29.5479 76.1857 29.17C74.8915 28.5521 72.8714 29.9213 71.8524 30.5303C71.4826 30.757 71.8208 31.3349 72.195 31.1082Z"
      fill="#46A358" />
    <path
      d="M62.1396 33.5886C58.6225 36.4025 57.3419 40.67 56.9856 44.973C56.9496 45.3998 57.6259 45.3998 57.662 44.973C58.0047 40.8345 59.2357 36.7626 62.6176 34.0598C62.9558 33.7887 62.4733 33.3219 62.1396 33.5886Z"
      fill="#46A358" />
    <path
      d="M47.0023 34.722C45.9562 36.5091 45.9877 38.4561 46.2177 40.4565C46.4116 42.1368 46.6325 43.786 47.8094 45.0929C48.098 45.413 48.576 44.9418 48.2874 44.6217C47.1331 43.3415 46.9888 41.5634 46.8354 39.9275C46.6731 38.2249 46.6957 36.5757 47.5885 35.0554C47.8049 34.6865 47.2232 34.3531 47.0023 34.722Z"
      fill="#46A358" />
    <path
      d="M28.3433 30.3301C26.3864 30.3568 27.1619 32.3883 28.2081 33.1173C29.5157 34.0286 31.0037 34.6376 32.3926 35.4066C34.0294 36.3135 34.6877 37.8427 35.9458 39.1185C36.2479 39.4252 36.7259 38.954 36.4238 38.6473C35.1747 37.3804 34.5705 35.8645 32.9607 34.9577C32.1491 34.4998 31.2968 34.1131 30.4807 33.673C30.0568 33.4463 29.633 33.2195 29.2271 32.9662C29.0648 32.8684 28.898 32.7661 28.7356 32.6683C27.9285 32.366 27.8022 31.8104 28.3478 31.0013C28.7762 30.9924 28.7762 30.3257 28.3433 30.3301Z"
      fill="#46A358" />
    <path
      d="M79.2384 33.402C79.2609 34.2911 78.8461 34.7756 77.9848 34.8601C77.57 35.0245 77.1596 35.1846 76.7448 35.349C76.127 35.5935 75.5048 35.838 74.887 36.0825C73.4441 36.6515 71.9966 37.225 70.5537 37.794C70.1524 37.9495 70.3282 38.5986 70.7341 38.4385C72.3844 37.7851 74.0348 37.1361 75.6851 36.4826C76.9071 35.9981 78.4673 35.6513 79.554 34.8956C80.4964 34.2377 80.5235 32.873 79.2339 32.7352C78.8055 32.6863 78.81 33.3576 79.2384 33.402Z"
      fill="#46A358" />
    <path
      d="M69.0025 38.7183C67.1898 40.4076 65.7604 42.3902 64.7504 44.6395C64.5745 45.0262 65.1562 45.3685 65.3366 44.9773C66.3241 42.7814 67.7084 40.8432 69.485 39.194C69.7961 38.8962 69.3182 38.425 69.0025 38.7183Z"
      fill="#46A358" />
    <path
      d="M37.5511 41.6347C38.0696 42.3904 38.4033 43.2038 38.5611 44.1018C38.6333 44.5241 39.2871 44.3463 39.215 43.924C39.0481 42.9771 38.6829 42.0925 38.1373 41.2968C37.8938 40.9456 37.3076 41.279 37.5511 41.6347Z"
      fill="#46A358" />
  </g>
  <defs>
    <clipPath id="clip0_104_843">
      <rect width="55" height="48" fill="white" transform="translate(26 45)" />
    </clipPath>
    <clipPath id="clip1_104_843">
      <rect width="61" height="46" fill="white" transform="translate(23)" />
    </clipPath>
  </defs>
</svg>