<svg width="90" height="95" viewBox="0 0 90 95" fill="none" xmlns="http://www.w3.org/2000/svg">
<circle cx="41" cy="56" r="37" fill="#46A358" fill-opacity="0.13"/>
<g clip-path="url(#clip0_104_845)">
<path d="M26.2489 43.7766C43.0216 42.0238 59.9383 44.7144 76.6698 42.29C77.4515 42.1753 77.1183 40.9918 76.3407 41.1064C59.7285 43.5104 42.9064 40.8075 26.2489 42.548C25.4672 42.6299 25.459 43.8585 26.2489 43.7766Z" fill="#727272"/>
<path d="M26.0843 42.5727C24.447 43.0806 24.6527 45.2101 25.5207 46.3404C26.9442 48.1915 30.1407 48.2324 32.2265 48.0358C33.0123 47.9621 33.0164 46.7335 32.2265 46.8073C30.8771 46.9342 29.4784 46.9219 28.166 46.537C27.4831 46.3363 26.7631 46.0537 26.3723 45.4149C26.1707 45.0831 25.784 43.9528 26.4135 43.7604C27.1704 43.5228 26.8454 42.3352 26.0843 42.5727Z" fill="#727272"/>
<path d="M73.7818 42.6751C74.6499 42.6218 75.4891 42.4744 76.3531 42.3597C77.723 42.1755 78.4265 42.544 78.6651 43.9774C78.8626 45.1691 78.1097 45.5172 77.0483 45.853C76.5464 46.0127 76.0198 46.111 75.5015 46.2134C74.1151 46.4837 72.7245 46.6188 71.3134 46.668C70.5236 46.6966 70.5194 47.9252 71.3134 47.8966C73.7201 47.8106 80.4794 47.7205 80.2161 43.9323C80.1503 42.9863 79.2329 41.6799 78.373 41.254C77.0895 40.6152 75.0901 41.3646 73.7777 41.4465C72.9919 41.4956 72.9878 42.7242 73.7818 42.6751Z" fill="#727272"/>
<path d="M28.0549 47.7736C27.8862 50.3741 24.9242 51.8443 23.3526 53.6298C22.1184 55.0345 21.1475 56.6521 20.444 58.3762C18.9301 62.0702 18.6421 66.2105 19.4114 70.1051C20.9953 78.095 27.0593 84.6884 34.6332 87.5182C35.3778 87.7967 35.6987 86.6091 34.9623 86.3347C27.0963 83.3943 20.983 76.0269 20.3001 67.5783C19.975 63.5649 20.8266 59.3878 23.077 56.0092C24.9447 53.208 29.0546 51.4143 29.2891 47.7736C29.3385 46.9873 28.1043 46.9873 28.0549 47.7736Z" fill="#727272"/>
<path d="M74.8226 47.2495C74.8226 50.4807 77.1799 52.5079 79.5783 54.3139C81.6394 55.8619 83.2357 57.369 84.2518 59.7975C85.1363 61.9065 85.6259 64.1835 85.737 66.4646C86.1401 74.8558 81.2445 82.645 73.72 86.3103C73.0083 86.6584 73.6295 87.7191 74.3413 87.371C81.3309 83.9678 86.2594 77.0509 86.9177 69.3026C87.2509 65.3834 86.568 61.067 84.5686 57.6311C82.3676 53.8429 76.0568 52.1065 76.0527 47.2495C76.0568 46.4591 74.8226 46.4591 74.8226 47.2495Z" fill="#727272"/>
<path d="M34.267 86.6172C33.4689 88.3823 34.9006 89.9058 36.6778 89.9877C38.6073 90.0819 40.6437 89.6355 42.5773 89.5536C44.8194 89.4553 47.0615 89.4512 49.3036 89.4839C57.6715 89.6109 66.0352 90.2457 74.366 89.1154C74.6499 89.0785 74.7939 88.7673 74.8185 88.5215C74.8844 87.8335 74.8268 87.3257 74.6252 86.6787C74.3907 85.9251 73.2018 86.2487 73.4362 87.0063C73.6461 87.5018 73.6954 88.0096 73.5843 88.5215C73.7366 88.325 73.8847 88.1284 74.0369 87.9277C67.5409 88.8082 60.9873 88.5871 54.4543 88.3823C51.2866 88.284 48.1147 88.1939 44.9469 88.2472C43.4988 88.2717 42.0507 88.3291 40.6026 88.4274C39.8127 88.4806 39.0269 88.5543 38.2411 88.6321C37.6611 88.6895 34.4439 89.185 35.3284 87.2274C35.6534 86.519 34.592 85.8965 34.267 86.6172Z" fill="#727272"/>
<path d="M26.0802 54.2237C21.0529 60.3789 20.6621 68.9708 25.1751 75.5233C25.3973 75.8468 25.9321 75.5396 25.71 75.212C21.3615 68.9012 21.6618 60.6042 26.5204 54.6537C26.7631 54.3548 26.3312 53.9166 26.0802 54.2237Z" fill="#727272"/>
<path d="M26.4133 77.8043C26.8165 78.3858 27.2773 78.9223 27.7915 79.4096C28.0795 79.6799 28.5156 79.2499 28.2276 78.9755C27.7504 78.5251 27.3225 78.0336 26.944 77.4971C26.7219 77.1736 26.1871 77.4767 26.4133 77.8043Z" fill="#727272"/>
<path d="M29.8651 81.3387C30.2641 81.3387 30.2641 80.7244 29.8651 80.7244C29.466 80.7244 29.466 81.3387 29.8651 81.3387Z" fill="#727272"/>
<path d="M73.6295 47.2822C73.3128 48.4617 73.0412 49.6493 73.5061 50.8287C73.9381 51.9222 74.8144 52.9091 75.559 53.8142C77.3445 55.9765 80.9977 58.1593 81.1705 61.1734C81.191 61.5666 81.8081 61.5707 81.7876 61.1734C81.66 58.9169 79.9898 57.4713 78.4511 56.0052C77.4597 55.0592 76.5258 54.0558 75.6701 52.9829C75.0941 52.258 74.4441 51.4922 74.1109 50.6199C73.7036 49.5592 73.9381 48.5149 74.222 47.4501C74.3248 47.0652 73.7283 46.9014 73.6295 47.2822Z" fill="#727272"/>
<path d="M81.4379 62.5987C81.5243 63.385 81.6107 64.1713 81.6971 64.9576C81.7382 65.3467 82.3594 65.3508 82.3141 64.9576C82.2278 64.1713 82.1414 63.385 82.055 62.5987C82.0138 62.2097 81.3967 62.2056 81.4379 62.5987Z" fill="#727272"/>
<path d="M81.4955 66.5752C81.5408 66.8046 81.5037 67.0216 81.4173 67.2346C81.3556 67.3902 81.4873 67.5704 81.6313 67.6113C81.8082 67.6605 81.948 67.5499 82.0097 67.3984C82.1373 67.0789 82.1537 66.7472 82.0879 66.4114C82.018 66.0264 81.4215 66.1903 81.4955 66.5752Z" fill="#727272"/>
<path d="M54.7423 62.0825C56.2151 59.2977 58.9879 57.4753 62.2091 57.635C66.0434 57.8234 70.0751 61.1447 67.3887 65.068C65.813 67.3654 62.9826 68.852 60.8968 70.6621C58.5806 72.6729 56.4619 74.8884 54.5078 77.2555C54.0059 77.8616 54.8739 78.7339 55.3799 78.1237C58.3585 74.5158 61.7278 71.4648 65.4304 68.6145C67.9029 66.7061 70.6387 63.8107 69.1371 60.4567C67.8947 57.6801 64.4636 56.3164 61.5715 56.3983C58.1651 56.4965 55.2442 58.495 53.6726 61.46C53.3065 62.1603 54.372 62.7828 54.7423 62.0825Z" fill="#727272"/>
<path d="M54.4502 61.1285C51.8131 58.1758 48.5219 55.133 44.2516 55.3541C41.0838 55.518 38.3563 57.9096 37.8996 61.0589C37.336 64.8961 40.2158 68.2625 43.0215 70.4862C46.469 73.2177 51.6691 74.1638 54.2486 77.8659C54.697 78.5129 55.7666 77.8986 55.3141 77.2475C53.7055 74.9378 51.3647 73.7501 48.8798 72.5543C45.7203 71.035 42.606 69.1552 40.5737 66.223C38.3069 62.9591 38.6813 57.9669 43.075 56.7711C47.3741 55.604 50.9944 59.1095 53.5739 61.9967C54.1046 62.5905 54.9767 61.7182 54.4502 61.1285Z" fill="#727272"/>
</g>
<g clip-path="url(#clip1_104_845)">
<path d="M50.4719 15.629C49.283 17.782 47.4688 19.507 45.1404 20.4C44.2313 20.7507 43.0342 20.7303 43.1535 19.4866C43.2275 18.7118 44.0667 18.039 44.6755 17.676C45.7122 17.0562 47.041 16.8523 48.1558 16.3711C48.8798 16.0571 48.2545 15.001 47.5346 15.315C45.5436 16.1754 43.3633 16.3793 42.232 18.4671C41.6272 19.5844 41.4298 21.1381 42.7914 21.7742C44.2683 22.4634 46.3005 21.3501 47.5264 20.5672C49.2295 19.4825 50.5665 18.0022 51.5332 16.2447C51.9199 15.5556 50.8544 14.9357 50.4719 15.629Z" fill="#46A358"/>
<path d="M47.8966 15.119C46.3992 15.2821 44.9141 15.2903 43.429 15.013C42.886 14.9111 42.3471 14.7724 41.8205 14.6052C41.3763 14.4747 40.9484 14.3157 40.5247 14.1241C39.8953 13.333 39.957 12.8926 40.7181 12.7947C42.9477 11.0902 46.4321 12.8803 48.6206 13.7081C49.3652 13.9895 49.6861 12.8069 48.9497 12.5296C47.045 11.8079 44.9552 10.7232 42.8613 10.9556C41.6601 11.0861 38.8915 11.604 38.5707 13.1005C37.8302 16.5667 46.1071 16.5422 47.8966 16.3465C48.6782 16.2567 48.6864 15.0334 47.8966 15.119Z" fill="#46A358"/>
<path d="M49.353 12.5499C47.4812 11.0778 45.8192 8.78606 45.9097 6.30268C45.9509 5.1976 46.6584 4.72865 47.6828 5.22614C48.2463 5.49936 48.6372 6.19666 48.9457 6.72269C49.6615 7.95419 49.9618 9.36102 50.2251 10.7434C50.3732 11.5141 51.5621 11.1879 51.414 10.4172C51.019 8.35381 50.4554 6.20481 48.9169 4.66341C48.0078 3.75406 46.4939 2.71015 45.4243 3.93348C42.9231 6.79202 46.1977 11.616 48.4808 13.4144C49.0979 13.8996 49.9782 13.0392 49.353 12.5499Z" fill="#46A358"/>
<path d="M51.3851 10.7559C51.6566 8.79038 52.5205 5.05104 54.7995 4.41491C56.9181 3.82771 56.7083 7.20412 56.1159 8.32143C55.5194 9.4469 54.347 10.5031 53.4955 11.445C52.9689 12.0281 53.8369 12.8967 54.3676 12.3095C55.5894 10.9557 57.4159 9.40205 57.6792 7.49772C57.8849 6.02156 57.7738 3.79101 56.1324 3.13856C54.635 2.5432 53.154 3.89703 52.3025 4.96133C51.0478 6.52721 50.4636 8.46823 50.1921 10.4215C50.0851 11.2004 51.274 11.5347 51.3851 10.7559Z" fill="#46A358"/>
<path d="M54.454 12.4647C55.8897 11.274 58.5555 10.4462 60.3079 11.5187C62.5787 12.9133 59.3618 13.7492 58.3004 13.8185C57.165 13.896 56.0296 13.8267 54.9024 13.6962C54.1167 13.6065 54.1208 14.8298 54.9024 14.9195C56.7454 15.1316 59.2342 15.4048 60.9497 14.4995C62.0152 13.9368 62.7803 12.5748 62.1262 11.429C61.394 10.1444 59.333 9.83454 57.996 9.87124C56.3381 9.92017 54.8448 10.5563 53.586 11.6002C52.9731 12.1059 53.8493 12.9704 54.454 12.4647Z" fill="#46A358"/>
<path d="M54.5856 14.8786C55.8567 15.3435 57.1197 16.0449 57.8437 17.2274C58.7487 18.7117 58.7693 21.4439 56.1365 20.9341C53.8204 20.4856 52.1461 18.0471 51.673 15.9307C51.5003 15.1641 50.3114 15.4862 50.4841 16.2569C50.9038 18.1408 51.9528 19.8046 53.5242 20.9586C54.7584 21.8679 56.9263 22.9526 58.3785 21.921C59.8718 20.8607 59.8718 18.6669 59.1971 17.1581C58.3991 15.3802 56.7001 14.3485 54.9229 13.6961C54.166 13.4269 53.8451 14.6095 54.5856 14.8786Z" fill="#46A358"/>
<path d="M42.1044 18.2467C38.5008 20.3998 35.8433 22.7976 35.2139 27.1119C34.5269 31.7972 35.6252 36.6947 36.629 41.2577C36.7977 42.0284 37.9866 41.7022 37.8179 40.9315C36.9293 36.8945 36.0202 32.7107 36.2958 28.5554C36.5961 24.025 38.9656 21.5498 42.7215 19.307C43.4044 18.8992 42.7873 17.839 42.1044 18.2467Z" fill="#46A358"/>
<path d="M58.0082 16.8645C63.0476 17.2559 66.6143 21.2685 67.9677 25.8642C69.4404 30.8676 68.6177 36.1361 67.8155 41.1763C67.6921 41.947 68.8809 42.2773 69.0044 41.5025C69.9423 35.5897 70.8844 29.3099 68.4613 23.6091C66.6266 19.2908 62.8172 16.0163 58.0082 15.6411C57.2143 15.58 57.2184 16.8033 58.0082 16.8645Z" fill="#46A358"/>
<path d="M43.3263 20.7833C37.2996 25.1302 39.2536 34.9577 40.4713 41.0662C40.6235 41.8369 41.8165 41.5107 41.6602 40.74C41.0226 37.543 40.4302 34.3093 40.4919 31.039C40.5536 27.8583 41.1583 23.8498 43.9475 21.8395C44.5851 21.3787 43.9721 20.3184 43.3263 20.7833Z" fill="#46A358"/>
<path d="M50.0934 16.8278C47.8514 20.2491 46.4033 24.074 45.8767 28.1273C45.6011 30.2519 45.5805 32.405 45.8356 34.5336C46.1112 36.8579 46.864 39.0925 47.1438 41.4169C47.2343 42.1876 48.4725 42.1998 48.3779 41.4169C47.8925 37.3595 46.6419 33.6242 46.971 29.473C47.3124 25.1628 48.7934 21.0605 51.1629 17.4435C51.5908 16.7829 50.5253 16.1713 50.0934 16.8278Z" fill="#46A358"/>
<path d="M53.1088 20.6079C54.9477 23.6173 55.3344 27.0222 55.6552 30.4598C55.9885 34.036 56.26 37.6163 56.4903 41.2007C56.5397 41.9836 57.7738 41.9877 57.7245 41.2007C57.4653 37.1433 57.1732 33.0859 56.7536 29.0407C56.4245 25.8641 55.8692 22.7528 54.1743 19.988C53.7629 19.3193 52.6933 19.9309 53.1088 20.6079Z" fill="#46A358"/>
<path d="M58.7241 21.1789C63.3192 26.9082 63.4714 34.2237 63.3068 41.2049C63.2904 41.9919 64.5245 41.9919 64.541 41.2049C64.7137 33.8404 64.4176 26.3291 59.5962 20.3144C59.1026 19.6986 58.2345 20.5713 58.7241 21.1789Z" fill="#46A358"/>
<path d="M50.9532 22.6712C50.8833 22.9444 50.8174 23.2136 50.7475 23.4868C50.6529 23.8701 51.2453 24.0332 51.344 23.6499C51.4139 23.3767 51.4798 23.1075 51.5497 22.8343C51.6443 22.4551 51.0519 22.292 50.9532 22.6712Z" fill="#46A358"/>
<path d="M52.286 24.7957C52.286 25.1015 52.286 25.4074 52.286 25.7132C52.286 26.1087 52.9031 26.1087 52.9031 25.7132C52.9031 25.4074 52.9031 25.1015 52.9031 24.7957C52.9031 24.4001 52.286 24.4001 52.286 24.7957Z" fill="#46A358"/>
<path d="M49.3077 26.7328C49.2748 27.1732 49.2377 27.6177 49.2048 28.0581C49.176 28.4496 49.7931 28.4496 49.8219 28.0581C49.8548 27.6177 49.8918 27.1732 49.9247 26.7328C49.9535 26.3413 49.3365 26.3413 49.3077 26.7328Z" fill="#46A358"/>
<path d="M53.3145 28.8733C53.3145 29.2811 53.3145 29.6889 53.3145 30.0967C53.3145 30.4922 53.9315 30.4922 53.9315 30.0967C53.9315 29.6889 53.9315 29.2811 53.9315 28.8733C53.9315 28.4778 53.3145 28.4778 53.3145 28.8733Z" fill="#46A358"/>
<path d="M50.9491 31.1162C50.9491 31.5566 50.9491 32.0011 50.9491 32.4415C50.9491 32.8371 51.5662 32.8371 51.5662 32.4415C51.5662 32.0011 51.5662 31.5566 51.5662 31.1162C51.5662 30.7207 50.9491 30.7207 50.9491 31.1162Z" fill="#46A358"/>
<path d="M49.6121 35.6018C49.6121 36.2135 49.6121 36.8252 49.6121 37.4368C49.6121 37.8324 50.2291 37.8324 50.2291 37.4368C50.2291 36.8252 50.2291 36.2135 50.2291 35.6018C50.2291 35.2063 49.6121 35.2063 49.6121 35.6018Z" fill="#46A358"/>
<path d="M47.7814 31.6014C47.8514 32.0092 47.9254 32.417 47.9954 32.8247C48.0612 33.2121 48.6577 33.049 48.5919 32.6616C48.5219 32.2539 48.4479 31.8461 48.3779 31.4383C48.308 31.055 47.7115 31.2181 47.7814 31.6014Z" fill="#46A358"/>
<path d="M52.5 37.6408C52.5329 38.0486 52.5699 38.4564 52.6028 38.8642C52.6358 39.2556 53.2528 39.2556 53.2199 38.8642C53.187 38.4564 53.15 38.0486 53.1171 37.6408C53.0842 37.2494 52.463 37.2453 52.5 37.6408Z" fill="#46A358"/>
<path d="M54.347 33.0532C54.3799 33.461 54.4169 33.8687 54.4498 34.2765C54.4827 34.6639 55.0998 34.668 55.0669 34.2765C55.034 33.8687 54.9969 33.461 54.964 33.0532C54.9311 32.6617 54.3141 32.6576 54.347 33.0532Z" fill="#46A358"/>
<path d="M61.431 19.4008C61.9082 19.8127 62.3854 20.2245 62.8626 20.6323C63.1629 20.8892 63.5989 20.457 63.2986 20.2001C62.8214 19.7882 62.3442 19.3764 61.867 18.9686C61.5708 18.7117 61.1307 19.1398 61.431 19.4008Z" fill="#46A358"/>
<path d="M61.6901 22.8058C61.9575 23.2829 62.229 23.764 62.4964 24.2411C62.6898 24.5837 63.2246 24.2779 63.0312 23.9312C62.7638 23.4541 62.4923 22.973 62.2249 22.4959C62.0275 22.1533 61.4968 22.4632 61.6901 22.8058Z" fill="#46A358"/>
<path d="M64.1625 23.0055C64.467 23.4173 64.7714 23.8292 65.0758 24.2369C65.3062 24.5509 65.8451 24.2451 65.6106 23.927C65.3062 23.5152 65.0017 23.1033 64.6973 22.6955C64.4628 22.3856 63.928 22.6874 64.1625 23.0055Z" fill="#46A358"/>
<path d="M65.6846 28.3393C65.7874 29.0529 65.8944 29.7665 65.9972 30.4801C66.0548 30.8675 66.6472 30.7044 66.5937 30.317C66.4909 29.6034 66.3839 28.8898 66.2811 28.1761C66.2194 27.7888 65.627 27.9559 65.6846 28.3393Z" fill="#46A358"/>
<path d="M63.6112 26.5083C63.7141 26.8468 63.8169 27.1893 63.9198 27.5278C64.035 27.9029 64.6273 27.7439 64.5163 27.3647C64.4134 27.0262 64.3106 26.6837 64.2077 26.3452C64.0926 25.9701 63.4961 26.1291 63.6112 26.5083Z" fill="#46A358"/>
<path d="M66.8817 34.1746C66.9269 34.6599 66.9187 35.1452 66.8406 35.6263C66.7789 36.0096 67.3712 36.1768 67.4371 35.7894C67.5234 35.2512 67.5522 34.717 67.5029 34.1746C67.4617 33.7873 66.8447 33.7832 66.8817 34.1746Z" fill="#46A358"/>
<path d="M65.4501 36.1116C65.4501 36.4868 65.4501 36.8578 65.4501 37.233C65.4501 37.6285 66.0671 37.6285 66.0671 37.233C66.0671 36.8578 66.0671 36.4868 66.0671 36.1116C66.0671 35.7161 65.4501 35.7161 65.4501 36.1116Z" fill="#46A358"/>
<path d="M66.0877 25.8928C66.2564 26.3006 66.4292 26.7084 66.5979 27.1162C66.6637 27.2711 66.8035 27.3771 66.9763 27.3282C67.1203 27.2915 67.2561 27.1039 67.1902 26.953C67.0216 26.5453 66.8488 26.1375 66.6801 25.7297C66.6143 25.5747 66.4744 25.4687 66.3017 25.5177C66.1577 25.5544 66.026 25.7419 66.0877 25.8928Z" fill="#46A358"/>
<path d="M64.9359 32.9512C64.9359 33.1877 64.9359 33.4283 64.9359 33.6648C64.9359 34.0604 65.553 34.0604 65.553 33.6648C65.553 33.4283 65.553 33.1877 65.553 32.9512C65.553 32.5557 64.9359 32.5557 64.9359 32.9512Z" fill="#46A358"/>
<path d="M66.17 39.7817C66.1536 40.0712 66.0836 40.3485 65.9767 40.6177C65.915 40.7726 66.0466 40.952 66.1906 40.9928C66.3675 41.0417 66.5073 40.9316 66.569 40.7808C66.7007 40.4586 66.7665 40.1283 66.7871 39.7817C66.8118 39.3862 66.1947 39.3902 66.17 39.7817Z" fill="#46A358"/>
<path d="M40.2902 21.8841C40.0804 22.1859 39.8706 22.4876 39.6567 22.7894C39.4305 23.1156 39.9653 23.4214 40.1915 23.0993C40.4013 22.7975 40.6111 22.4958 40.825 22.194C41.0472 21.8678 40.5124 21.5619 40.2902 21.8841Z" fill="#46A358"/>
<path d="M38.5296 26.3453C38.4514 26.7164 38.3774 27.0874 38.2992 27.4626C38.221 27.8459 38.8134 28.0131 38.8957 27.6257C38.9739 27.2546 39.0479 26.8836 39.1261 26.5084C39.2042 26.1251 38.6077 25.962 38.5296 26.3453Z" fill="#46A358"/>
<path d="M38.3321 24.1228C38.0071 24.551 37.7644 25.024 37.5998 25.5337C37.4764 25.9088 38.0729 26.0679 38.1963 25.6968C38.3485 25.236 38.5748 24.8201 38.8669 24.4327C39.1055 24.1146 38.5666 23.8129 38.3321 24.1228Z" fill="#46A358"/>
<path d="M37.0773 28.1803C37.0033 28.69 36.9251 29.1957 36.8511 29.7054C36.7935 30.0887 37.39 30.2559 37.4476 29.8685C37.5216 29.3588 37.5998 28.8531 37.6738 28.3434C37.7314 27.956 37.1349 27.7888 37.0773 28.1803Z" fill="#46A358"/>
<path d="M37.6945 31.1163C37.6411 31.626 37.674 32.1276 37.7727 32.6292C37.8468 33.0165 38.4432 32.8534 38.3692 32.466C38.2828 32.0175 38.2664 31.5689 38.3157 31.1163C38.3486 30.7248 37.7316 30.7289 37.6945 31.1163Z" fill="#46A358"/>
<path d="M38.2004 34.9902C38.2333 35.296 38.2704 35.6018 38.3033 35.9077C38.3197 36.0708 38.4308 36.2135 38.6118 36.2135C38.764 36.2135 38.9409 36.0749 38.9203 35.9077C38.8874 35.6018 38.8504 35.296 38.8175 34.9902C38.801 34.827 38.69 34.6843 38.509 34.6843C38.3568 34.6843 38.184 34.823 38.2004 34.9902Z" fill="#46A358"/>
<path d="M37.2008 37.2901C37.4394 37.6775 37.6122 38.0852 37.7192 38.5297C37.8138 38.913 38.4062 38.7499 38.3156 38.3666C38.1964 37.8773 37.9989 37.4124 37.7356 36.9802C37.5258 36.6458 36.9951 36.9557 37.2008 37.2901Z" fill="#46A358"/>
<path d="M38.5172 39.8632C38.5871 40.0345 38.6529 40.2017 38.7229 40.373C38.7846 40.5238 38.9286 40.6339 39.1013 40.585C39.2494 40.5442 39.3811 40.3648 39.3153 40.2099C39.2453 40.0386 39.1795 39.8714 39.1096 39.7001C39.0479 39.5492 38.9039 39.4391 38.7311 39.4881C38.5871 39.5248 38.4555 39.7083 38.5172 39.8632Z" fill="#46A358"/>
</g>
<defs>
<clipPath id="clip0_104_845">
<rect width="68" height="49" fill="white" transform="translate(19 41)"/>
</clipPath>
<clipPath id="clip1_104_845">
<rect width="35" height="39" fill="white" transform="translate(35 3)"/>
</clipPath>
</defs>
</svg>
