<svg width="90" height="95" viewBox="0 0 90 95" fill="none" xmlns="http://www.w3.org/2000/svg">
<circle cx="37" cy="55" r="37" fill="#46A358" fill-opacity="0.13"/>
<g clip-path="url(#clip0_104_844)">
<path d="M51.3006 47.0271C51.3205 47.5113 51.4595 47.9693 51.7176 48.3815C51.9393 48.7414 52.5053 48.3979 52.2835 48.0413C52.0883 47.7239 51.979 47.3869 51.9658 47.0172C51.946 46.5952 51.2841 46.6083 51.3006 47.0271Z" fill="#46A358"/>
<path d="M59.8093 46.9843C59.7762 47.1675 59.7398 47.3474 59.7067 47.5307C59.6736 47.7041 59.7663 47.884 59.945 47.9298C60.1105 47.9723 60.3156 47.8676 60.3487 47.6942C60.3818 47.511 60.4182 47.3311 60.4513 47.1479C60.4844 46.9745 60.3918 46.7945 60.2131 46.7487C60.0476 46.7062 59.8424 46.8109 59.8093 46.9843Z" fill="#46A358"/>
<path d="M64.3401 47.6354C64.767 47.6256 64.7538 46.9713 64.3268 46.9811C63.8999 46.9909 63.9131 47.6452 64.3401 47.6354Z" fill="#46A358"/>
<path d="M39.4823 48.7936C39.9092 48.7838 39.896 48.1295 39.469 48.1393C39.0421 48.1491 39.0554 48.8034 39.4823 48.7936Z" fill="#46A358"/>
<path d="M51.5885 7.38719C49.0335 14.8368 47.6402 22.6398 47.488 30.5082C47.4118 34.4636 47.6468 38.4224 48.1929 42.3418C48.4444 44.1478 48.7621 45.9472 49.146 47.7303C49.4472 49.124 49.6027 50.7174 50.6486 51.7807C51.0953 52.2354 51.7804 51.5255 51.3369 51.074C50.2084 49.9256 50.0926 47.498 49.8013 45.9963C49.434 44.0987 49.1427 42.1848 48.9276 40.2611C48.5205 36.6229 48.3848 32.9587 48.5139 29.3009C48.7754 21.92 50.1554 14.6209 52.5515 7.62929C52.7567 7.03057 51.7903 6.79174 51.5885 7.38719Z" fill="#46A358"/>
<path d="M55.4407 7.52147C56.7778 14.9646 56.8109 22.5712 57.0789 30.1059C57.2047 33.6459 57.4198 37.1956 57.347 40.7389C57.2709 44.4162 56.5461 47.8744 55.5698 51.4078C55.401 52.0196 56.3641 52.2585 56.5329 51.6499C57.4496 48.3423 58.1777 45.0771 58.3167 41.6353C58.4722 37.7911 58.2108 33.9272 58.0751 30.0895C57.8037 22.4633 57.7475 14.7781 56.3939 7.24338C56.2814 6.62176 55.3282 6.90313 55.4407 7.52147Z" fill="#46A358"/>
<path d="M62.6291 20.3104C63.0825 30.4951 63.4929 40.8042 60.9776 50.7796C60.8221 51.3947 61.7851 51.6335 61.9407 51.0217C64.4758 40.9613 64.0819 30.5606 63.6219 20.2908C63.5921 19.6593 62.5993 19.6757 62.6291 20.3104Z" fill="#46A358"/>
<path d="M59.8226 20.4608C58.4161 22.0868 57.4762 23.9778 57.0625 26.0815C56.94 26.6999 57.9031 26.9453 58.0256 26.3236C58.4062 24.3803 59.2368 22.6463 60.5375 21.1413C60.9512 20.6604 60.2396 19.9798 59.8226 20.4608Z" fill="#46A358"/>
<path d="M69.6055 26.7164C69.5824 34.0908 68.5829 41.3965 66.6236 48.5124C66.4549 49.1242 67.4179 49.363 67.5867 48.7545C69.5658 41.5568 70.5752 34.1562 70.5984 26.6968C70.5984 26.0654 69.6055 26.085 69.6055 26.7164Z" fill="#46A358"/>
<path d="M67.719 24.5211C65.1509 27.4624 63.8899 31.0841 62.9831 34.8106C62.8342 35.4257 63.7973 35.6678 63.9462 35.0527C64.8133 31.5029 65.9849 28.012 68.4372 25.2017C68.8509 24.724 68.136 24.0402 67.719 24.5211Z" fill="#46A358"/>
<path d="M43.7549 13.4171C45.5221 17.5329 46.8062 21.7991 47.6005 26.1995C47.713 26.8212 48.6629 26.5365 48.5537 25.9182C47.7594 21.5178 46.472 17.2515 44.708 13.1357C44.4598 12.5632 43.5067 12.8347 43.7549 13.4171Z" fill="#46A358"/>
<path d="M41.9148 13.7735C41.3952 20.0192 40.8855 26.3434 41.9379 32.5661C43.04 39.0571 45.7472 45.3911 47.8289 51.6236C48.0274 52.2224 48.9806 51.9443 48.782 51.3423C46.7665 45.2995 44.1619 39.1553 42.997 32.8867C41.8254 26.5756 42.3781 20.101 42.9076 13.7539C42.9606 13.1258 41.9677 13.1487 41.9148 13.7735Z" fill="#46A358"/>
<path d="M35.5969 28.8625C38.9097 31.9117 41.5937 35.4779 43.6059 39.4857C43.8905 40.0517 44.7345 39.5348 44.4532 38.972C42.4046 34.8922 39.6577 31.2574 36.2853 28.1526C35.8186 27.724 35.1303 28.4307 35.5969 28.8625Z" fill="#46A358"/>
<path d="M33.3233 30.1222C35.8882 37.6994 39.34 44.9364 43.6258 51.7087C43.9634 52.2453 44.8139 51.7349 44.4731 51.1951C40.2303 44.4914 36.8148 37.3395 34.2764 29.8408C34.0746 29.2454 33.1214 29.5202 33.3233 30.1222Z" fill="#46A358"/>
<path d="M39.0686 49.7619C37.6058 47.1773 35.4612 45.0278 32.7937 43.6602C32.251 43.3821 31.7314 43.4541 32.7838 43.3494C33.1677 43.3102 33.5649 43.2938 33.9488 43.3004C35.1998 43.3134 36.3316 43.5359 37.4072 44.2066C38.6582 44.9853 39.7503 46.1042 40.869 47.0563C41.3521 47.4685 42.0405 46.7618 41.5573 46.3496C40.1409 45.139 38.7376 43.6275 37.0001 42.875C36.0304 42.453 34.9813 42.3287 33.9289 42.3254C33.2604 42.3221 31.8704 42.1978 31.3111 42.7605C30.2189 43.8533 32.3106 44.4978 32.9625 44.8806C35.1998 46.1827 36.9604 48.0541 38.2213 50.2854C38.5324 50.8285 39.3797 50.3148 39.0686 49.7619Z" fill="#46A358"/>
<path d="M69.2811 41.7923C70.2508 39.6559 72.5046 38.9852 74.6492 38.5402C74.9636 38.4748 75.0893 38.0626 74.9305 37.8139C73.7655 35.9949 71.6441 35.8084 69.6551 35.9883C69.023 36.0439 69.0362 37.0254 69.675 36.9698C71.2801 36.8259 73.1169 36.816 74.0832 38.3276C74.1759 38.0855 74.2719 37.8434 74.3646 37.6013C71.9751 38.0953 69.483 38.9492 68.414 41.3146C68.1526 41.8872 69.0197 42.3681 69.2811 41.7923Z" fill="#46A358"/>
<path d="M35.4314 27.9137C34.9945 28.483 34.5047 29.1929 33.78 29.4219C33.0651 29.6477 32.3006 29.3238 32.3569 28.4699C32.3999 27.8025 32.979 27.315 33.5417 27.0369C34.197 26.713 35.994 26.5592 35.5174 27.8025C35.2924 28.3946 36.2555 28.6269 36.4805 28.0446C36.9405 26.8439 35.8352 25.7936 34.6636 25.7707C33.4325 25.7478 31.9994 26.5559 31.5361 27.7108C31.1026 28.7807 31.556 30.1188 32.7606 30.4231C34.2334 30.7928 35.3487 29.6379 36.1496 28.5975C36.5302 28.0936 35.8186 27.4099 35.4314 27.9137Z" fill="#46A358"/>
<path d="M43.9965 12.6807C43.3776 12.7952 42.4807 13.1944 41.8618 12.8672C41.2429 12.5368 41.3555 11.7156 41.7129 11.2412C42.0869 10.7471 42.676 10.5672 43.2717 10.7308C43.7549 10.8649 45.2607 12.1147 44.2116 12.5466C43.6291 12.7854 43.9038 13.7309 44.4962 13.4888C45.7373 12.9784 45.6942 11.5585 44.8966 10.6457C44.0924 9.72311 42.6528 9.37304 41.5772 10.0437C40.6373 10.6326 40.1144 11.9151 40.6241 12.9424C41.3455 14.4016 43.0334 13.852 44.2811 13.623C44.9066 13.5052 44.6186 12.5629 43.9965 12.6807Z" fill="#46A358"/>
<path d="M55.7916 6.6937C54.9311 6.9129 53.9283 7.17136 53.0414 6.9587C51.7937 6.66425 51.7474 5.25088 52.6244 4.51803C53.326 3.9324 54.4016 3.86696 55.2521 4.12215C55.7883 4.28247 56.4171 4.62927 56.5627 5.21162C56.7017 5.758 56.4336 6.29782 55.8776 6.43196C55.2588 6.58246 55.5401 7.5247 56.1623 7.37421C57.6416 7.01432 57.9659 5.19199 57.0558 4.11888C56.0299 2.91163 53.9714 2.70552 52.5913 3.37294C51.294 4.0011 50.503 5.68929 51.3668 6.97833C52.3662 8.47349 54.62 8.00237 56.0729 7.6294C56.6918 7.47563 56.4105 6.53338 55.7916 6.6937Z" fill="#46A358"/>
<path d="M62.8707 16.3419C61.4443 16.09 59.8822 16.4989 59.2302 17.8959C58.7007 19.0279 59.2004 20.4969 60.4316 20.9222C61.6726 21.3508 63.5557 20.8208 64.2441 19.6823C64.9027 18.5863 64.4261 17.1958 63.387 16.5414C62.8475 16.2012 62.3676 17.0616 62.9038 17.3986C63.5723 17.8174 63.7907 18.7695 63.2446 19.3813C62.7581 19.9276 61.719 20.1599 61.014 20.0356C60.1072 19.8753 59.7564 18.9363 60.2098 18.1609C60.7062 17.3136 61.7289 17.1369 62.6291 17.2939C63.2546 17.4052 63.4995 16.4531 62.8707 16.3419Z" fill="#46A358"/>
<path d="M70.5652 21.7662C69.3109 21.6844 67.5734 21.8611 67.2954 23.3791C67.067 24.6224 68.4968 26.2648 69.5922 26.7064C72.7197 27.966 73.3882 21.6844 70.691 21.8513C70.0555 21.8905 70.0721 22.872 70.7108 22.8328C71.5878 22.7771 71.3727 24.8285 71.1741 25.2342C70.7075 26.1993 69.8139 25.846 69.2248 25.2309C68.7714 24.7565 67.9573 23.9157 68.4273 23.2352C68.8807 22.5808 69.8934 22.7052 70.5851 22.7477C71.2238 22.7902 71.1973 21.8087 70.5652 21.7662Z" fill="#46A358"/>
<path d="M52.6377 9.17667C52.5384 9.50711 52.4358 9.83755 52.3365 10.168C52.214 10.5737 52.8561 10.7307 52.9785 10.3283C53.0778 9.99786 53.1804 9.66742 53.2797 9.33698C53.4022 8.9313 52.7601 8.77425 52.6377 9.17667Z" fill="#46A358"/>
<path d="M54.0508 9.23258C54.0541 9.45178 54.0608 9.66771 54.0641 9.88692C54.074 10.309 54.7359 10.2959 54.726 9.87383C54.7227 9.65463 54.716 9.43869 54.7127 9.21949C54.7061 8.79744 54.0442 8.81053 54.0508 9.23258Z" fill="#46A358"/>
<path d="M53.5809 13.1681C54.0078 13.1583 53.9946 12.504 53.5676 12.5138C53.144 12.5203 53.1573 13.1747 53.5809 13.1681Z" fill="#46A358"/>
<path d="M51.605 13.5347C51.5752 13.8978 51.5455 14.2643 51.519 14.6274C51.5057 14.8041 51.6911 14.9513 51.8566 14.9481C52.0518 14.9448 52.1676 14.791 52.1809 14.6143C52.2107 14.2512 52.2405 13.8848 52.2669 13.5216C52.2802 13.3449 52.0948 13.1977 51.9294 13.201C51.7341 13.2043 51.6183 13.358 51.605 13.5347Z" fill="#46A358"/>
<path d="M53.1704 14.5946C53.1803 14.9938 53.1869 15.3929 53.1969 15.7953C53.2068 16.2174 53.8687 16.2043 53.8588 15.7823C53.8489 15.3831 53.8422 14.984 53.8323 14.5816C53.8224 14.1595 53.1605 14.1726 53.1704 14.5946Z" fill="#46A358"/>
<path d="M54.342 12.2783C54.385 12.6055 54.4281 12.9327 54.4711 13.2566C54.4943 13.4332 54.6167 13.5805 54.8087 13.5772C54.9708 13.5739 55.1562 13.4202 55.133 13.2435C55.09 12.9163 55.0469 12.5892 55.0039 12.2653C54.9808 12.0886 54.8583 11.9414 54.6664 11.9446C54.5009 11.9479 54.3155 12.1017 54.342 12.2783Z" fill="#46A358"/>
<path d="M54.438 17.1859C54.4413 17.3692 54.4446 17.5491 54.4479 17.7323C54.4578 18.1544 55.1197 18.1413 55.1098 17.7192C55.1065 17.536 55.1032 17.3561 55.0999 17.1729C55.0899 16.7508 54.428 16.7639 54.438 17.1859Z" fill="#46A358"/>
<path d="M53.005 11.8695C52.9719 12.1934 53.0447 12.4977 53.1804 12.7921C53.2532 12.9524 53.4981 12.9852 53.6371 12.9001C53.8059 12.7987 53.8191 12.6122 53.7463 12.4486C53.6603 12.2621 53.647 12.056 53.6669 11.8531C53.6835 11.6765 53.4915 11.5293 53.3293 11.5325C53.1341 11.5391 53.0215 11.6928 53.005 11.8695Z" fill="#46A358"/>
<path d="M50.6949 17.0648C50.6288 17.4313 50.5626 17.7944 50.4964 18.1608C50.4203 18.5731 51.0623 18.7367 51.1384 18.3212C51.2046 17.9547 51.2708 17.5916 51.337 17.2251C51.4098 16.8129 50.7711 16.6493 50.6949 17.0648Z" fill="#46A358"/>
<path d="M52.5184 19.3224C52.4886 19.5776 52.4555 19.8327 52.4258 20.0879C52.4059 20.2646 52.4754 20.438 52.664 20.4871C52.8196 20.5263 53.0446 20.4282 53.0678 20.2515C53.0976 19.9963 53.1307 19.7411 53.1605 19.486C53.1803 19.3093 53.1108 19.1359 52.9222 19.0868C52.7666 19.0443 52.5416 19.1457 52.5184 19.3224Z" fill="#46A358"/>
<path d="M51.936 23.9779C51.9889 24.256 51.9559 24.5275 51.8665 24.7926C51.7308 25.1917 52.3728 25.352 52.5085 24.9529C52.6376 24.5734 52.6475 24.184 52.5714 23.7914C52.5383 23.618 52.3199 23.5231 52.161 23.5722C51.9724 23.6278 51.8996 23.8045 51.936 23.9779Z" fill="#46A358"/>
<path d="M49.9139 21.3377C49.8841 21.5929 49.851 21.848 49.8213 22.1032C49.8014 22.2799 49.8709 22.4533 50.0595 22.5024C50.2151 22.5416 50.4401 22.4435 50.4633 22.2668C50.4931 22.0116 50.5262 21.7564 50.556 21.5012C50.5758 21.3246 50.5063 21.1512 50.3177 21.1021C50.1588 21.0628 49.9338 21.161 49.9139 21.3377Z" fill="#46A358"/>
<path d="M54.4215 21.8579C54.5009 22.2211 54.577 22.5842 54.6565 22.9441C54.7458 23.3564 55.3813 23.1666 55.2919 22.7576C55.2125 22.3945 55.1363 22.0313 55.0569 21.6714C54.9676 21.2592 54.3354 21.4457 54.4215 21.8579Z" fill="#46A358"/>
<path d="M54.855 26.6674C54.8616 27.0305 54.8716 27.3937 54.8782 27.7569C54.8881 28.1789 55.55 28.1658 55.5401 27.7438C55.5335 27.3806 55.5236 27.0175 55.5169 26.6543C55.5103 26.2323 54.8484 26.2453 54.855 26.6674Z" fill="#46A358"/>
<path d="M54.0739 31.4636C54.117 31.7187 54.1567 31.9707 54.1997 32.2259C54.2295 32.3993 54.4545 32.4909 54.6101 32.4451C54.7987 32.3894 54.8616 32.2128 54.8318 32.0394C54.7888 31.7842 54.7491 31.5323 54.7061 31.2771C54.6763 31.1037 54.4512 31.0121 54.2957 31.0579C54.107 31.1102 54.0442 31.2869 54.0739 31.4636Z" fill="#46A358"/>
<path d="M51.3733 29.0295C51.3766 29.2487 51.3833 29.4646 51.3866 29.6838C51.3965 30.1058 52.0584 30.0928 52.0485 29.6707C52.0452 29.4515 52.0386 29.2356 52.0352 29.0164C52.0286 28.5943 51.3667 28.6074 51.3733 29.0295Z" fill="#46A358"/>
<path d="M49.5498 26.2289C49.573 26.5004 49.5465 26.7556 49.4671 27.0174C49.3447 27.423 49.9867 27.5801 50.1092 27.1777C50.2051 26.8669 50.2382 26.5397 50.2117 26.2158C50.1753 25.8003 49.5134 25.8101 49.5498 26.2289Z" fill="#46A358"/>
<path d="M50.3805 33.7603C50.3474 34.0155 50.3177 34.2706 50.2846 34.5258C50.2614 34.7025 50.3342 34.8759 50.5228 34.925C50.6784 34.9642 50.9034 34.8661 50.9266 34.6894C50.9597 34.4342 50.9895 34.179 51.0226 33.9238C51.0457 33.7472 50.9729 33.5738 50.7843 33.5247C50.6254 33.4854 50.4037 33.5836 50.3805 33.7603Z" fill="#46A358"/>
<path d="M53.7562 37.4672C53.7993 37.6831 53.839 37.9023 53.882 38.1182C53.9151 38.2916 54.1335 38.3865 54.2924 38.3374C54.4777 38.2818 54.5472 38.1051 54.5141 37.9317C54.4711 37.7158 54.4314 37.4966 54.3884 37.2807C54.3553 37.1073 54.1368 37.0124 53.978 37.0615C53.7926 37.1171 53.7231 37.2938 53.7562 37.4672Z" fill="#46A358"/>
<path d="M51.9657 41.2131C52.0452 41.5763 52.1279 41.9362 52.2073 42.2993C52.3 42.7116 52.9321 42.5218 52.8428 42.1129C52.7633 41.7497 52.6806 41.3898 52.6012 41.0267C52.5085 40.6144 51.8731 40.8009 51.9657 41.2131Z" fill="#46A358"/>
<path d="M55.6592 43.5818C55.5897 43.837 55.5235 44.0922 55.454 44.3507C55.3448 44.7596 55.9868 44.9199 56.096 44.511C56.1655 44.2558 56.2317 44.0006 56.3012 43.7421C56.4104 43.3332 55.7684 43.1729 55.6592 43.5818Z" fill="#46A358"/>
<path d="M55.166 15.1869C55.2091 15.4421 55.2521 15.6941 55.2951 15.9492C55.3249 16.1226 55.5499 16.2143 55.7055 16.1684C55.8941 16.1128 55.957 15.9362 55.9272 15.7628C55.8842 15.5076 55.8412 15.2556 55.7981 15.0005C55.7684 14.8271 55.5433 14.7355 55.3878 14.7813C55.2024 14.8369 55.1362 15.0135 55.166 15.1869Z" fill="#46A358"/>
<path d="M55.2455 19.679C55.2919 20.0061 55.3382 20.33 55.3845 20.6572C55.411 20.8306 55.5269 20.9811 55.7221 20.9778C55.8843 20.9746 56.0696 20.8208 56.0465 20.6441C56.0001 20.317 55.9538 19.9931 55.9075 19.6659C55.881 19.4925 55.7651 19.342 55.5699 19.3453C55.4077 19.3485 55.2191 19.5056 55.2455 19.679Z" fill="#46A358"/>
<path d="M60.2097 23.3107C60.1204 23.8243 60.0277 24.3347 59.9384 24.8484C59.8656 25.2606 60.5076 25.4242 60.5804 25.0087C60.6698 24.495 60.7624 23.9846 60.8518 23.471C60.9246 23.0588 60.2826 22.8952 60.2097 23.3107Z" fill="#46A358"/>
<path d="M61.4972 22.3881C61.5039 22.6433 61.5072 22.8985 61.5138 23.1504C61.5237 23.5724 62.1856 23.5594 62.1757 23.1373C62.1691 22.8821 62.1658 22.6269 62.1591 22.375C62.1492 21.953 61.4906 21.966 61.4972 22.3881Z" fill="#46A358"/>
<path d="M61.1364 25.8854C61.0735 26.4318 61.0139 26.9781 60.9511 27.5245C60.9047 27.9433 61.5666 27.9237 61.613 27.5114C61.6758 26.9651 61.7354 26.4187 61.7983 25.8723C61.8446 25.4568 61.1827 25.4732 61.1364 25.8854Z" fill="#46A358"/>
<path d="M59.4221 26.8439C59.2798 27.1383 59.1408 27.4328 58.9985 27.724C58.8164 28.1035 59.3956 28.4241 59.5776 28.0413C59.7199 27.7469 59.8589 27.4524 60.0012 27.1613C60.1833 26.7817 59.6041 26.4611 59.4221 26.8439Z" fill="#46A358"/>
<path d="M58.4259 25.0937C58.3399 25.3162 58.2571 25.5354 58.1711 25.7579C58.1082 25.9247 58.2505 26.1145 58.4094 26.157C58.598 26.2061 58.747 26.085 58.8131 25.9215C58.8992 25.699 58.9819 25.4798 59.068 25.2573C59.1309 25.0904 58.9885 24.9007 58.8297 24.8582C58.641 24.8091 58.4921 24.9269 58.4259 25.0937Z" fill="#46A358"/>
<path d="M60.3156 29.3925C60.3024 29.6837 60.2925 29.9749 60.2792 30.266C60.2627 30.6881 60.9246 30.6717 60.9411 30.253C60.9544 29.9618 60.9643 29.6706 60.9775 29.3794C60.9941 28.9574 60.3322 28.9737 60.3156 29.3925Z" fill="#46A358"/>
<path d="M61.6726 31.1101C61.6593 31.3817 61.6461 31.6565 61.6328 31.9281C61.6229 32.1047 61.8016 32.2519 61.9704 32.2487C62.1591 32.2454 62.2848 32.0916 62.2948 31.915C62.308 31.6434 62.3212 31.3686 62.3345 31.097C62.3444 30.9204 62.1657 30.7731 61.9969 30.7764C61.8082 30.7797 61.6825 30.9335 61.6726 31.1101Z" fill="#46A358"/>
<path d="M61.1497 34.035C61.1199 34.2706 61.0868 34.5094 61.057 34.745C61.0339 34.9184 61.11 35.095 61.2953 35.1441C61.4542 35.1834 61.6759 35.0852 61.6991 34.9085C61.7288 34.673 61.7619 34.4342 61.7917 34.1986C61.8149 34.0252 61.7388 33.8485 61.5534 33.7995C61.3946 33.7569 61.1728 33.8583 61.1497 34.035Z" fill="#46A358"/>
<path d="M58.6808 32.0133C58.6477 32.2129 58.6146 32.4157 58.5815 32.6153C58.5517 32.7887 58.6377 32.9653 58.8198 33.0144C58.9819 33.0537 59.1937 32.9523 59.2235 32.7789C59.2566 32.5793 59.2897 32.3764 59.3228 32.1769C59.3526 32.0035 59.2665 31.8268 59.0845 31.7777C58.9224 31.7352 58.7105 31.8366 58.6808 32.0133Z" fill="#46A358"/>
<path d="M59.1573 37.2152C59.1606 37.3592 59.164 37.5064 59.1673 37.6504C59.1772 38.0724 59.8391 38.0593 59.8292 37.6373C59.8259 37.4933 59.8225 37.3461 59.8192 37.2022C59.8093 36.7801 59.1474 36.7932 59.1573 37.2152Z" fill="#46A358"/>
<path d="M61.2953 39.1357C61.2986 39.2796 61.3019 39.4268 61.3052 39.5708C61.3151 39.9928 61.977 39.9797 61.9671 39.5577C61.9638 39.4137 61.9605 39.2665 61.9572 39.1226C61.9473 38.7005 61.2853 38.7136 61.2953 39.1357Z" fill="#46A358"/>
<path d="M59.389 43.101C59.4155 43.3562 59.389 43.5918 59.3063 43.8339C59.25 44.0007 59.3824 44.1905 59.5445 44.233C59.7299 44.2788 59.8887 44.1643 59.9483 43.9974C60.0476 43.7063 60.084 43.3955 60.0509 43.0912C60.031 42.9145 59.902 42.7673 59.7133 42.7706C59.5445 42.7706 59.3691 42.9243 59.389 43.101Z" fill="#46A358"/>
<path d="M60.2064 21.6517C60.1204 21.8185 60.031 21.9854 59.945 22.149C59.7497 22.5219 60.3256 22.8425 60.5241 22.4663C60.6102 22.2994 60.6995 22.1326 60.7856 21.969C60.9809 21.596 60.405 21.2754 60.2064 21.6517Z" fill="#46A358"/>
<path d="M43.04 15.4323C43.0996 15.7758 43.1625 16.1226 43.2221 16.4662C43.2518 16.6396 43.4769 16.7312 43.6324 16.6854C43.8211 16.6297 43.8873 16.4531 43.8542 16.2797C43.7946 15.9361 43.7317 15.5893 43.6721 15.2458C43.6424 15.0724 43.4173 14.9808 43.2618 15.0266C43.0731 15.0822 43.0069 15.2589 43.04 15.4323Z" fill="#46A358"/>
<path d="M44.0262 17.595C44.1785 17.9549 44.334 18.318 44.4863 18.6779C44.5558 18.8415 44.7146 18.9527 44.8966 18.8971C45.0522 18.8513 45.1879 18.655 45.1184 18.4914C44.9661 18.1315 44.8106 17.7684 44.6584 17.4085C44.5889 17.2449 44.43 17.1337 44.248 17.1893C44.0924 17.2351 43.9567 17.4314 44.0262 17.595Z" fill="#46A358"/>
<path d="M43.1227 18.8021C43.0466 19.306 43.0532 19.7869 43.1426 20.2842C43.2154 20.6964 43.8475 20.51 43.778 20.0977C43.7118 19.7248 43.7118 19.3387 43.7681 18.9624C43.8243 18.5502 43.1823 18.3866 43.1227 18.8021Z" fill="#46A358"/>
<path d="M44.3804 20.6931C44.4929 21.0006 44.6021 21.3114 44.7146 21.619C44.8569 22.0149 45.4924 21.8316 45.3501 21.4325C45.2375 21.125 45.1283 20.8141 45.0158 20.5066C44.8735 20.1107 44.2381 20.294 44.3804 20.6931Z" fill="#46A358"/>
<path d="M42.8415 22.0019C42.8481 22.365 42.858 22.7282 42.8646 23.0913C42.8746 23.5134 43.5365 23.5003 43.5265 23.0783C43.5199 22.7151 43.51 22.3519 43.5034 21.9888C43.4968 21.5667 42.8349 21.5798 42.8415 22.0019Z" fill="#46A358"/>
<path d="M44.0825 23.2321C44.0891 23.5593 44.0957 23.8864 44.1024 24.2136C44.1123 24.6356 44.7742 24.6226 44.7643 24.2005C44.7576 23.8733 44.751 23.5462 44.7444 23.219C44.7345 22.797 44.0726 22.81 44.0825 23.2321Z" fill="#46A358"/>
<path d="M45.9326 23.8799C46.065 24.2594 46.2007 24.6389 46.333 25.0184C46.472 25.4143 47.1075 25.2311 46.9685 24.8319C46.8361 24.4524 46.7004 24.0729 46.568 23.6934C46.429 23.2975 45.7936 23.4807 45.9326 23.8799Z" fill="#46A358"/>
<path d="M46.6573 27.1383C46.697 27.3379 46.74 27.5375 46.7798 27.737C46.8162 27.9104 47.0313 28.0053 47.1901 27.9562C47.3755 27.9006 47.4483 27.7239 47.4119 27.5505C47.3722 27.351 47.3291 27.1514 47.2894 26.9518C47.253 26.7784 47.0379 26.6835 46.879 26.7326C46.697 26.785 46.6209 26.9649 46.6573 27.1383Z" fill="#46A358"/>
<path d="M44.8405 27.1743C44.9497 27.4818 45.0291 27.7959 45.0655 28.1198C45.0854 28.2965 45.2144 28.4437 45.4031 28.4404C45.5686 28.4372 45.7473 28.2834 45.7274 28.1067C45.6844 27.7239 45.605 27.351 45.4759 26.9878C45.3336 26.5919 44.6981 26.7752 44.8405 27.1743Z" fill="#46A358"/>
<path d="M43.1426 25.8691C43.1492 26.1242 43.1526 26.3794 43.1592 26.6314C43.1691 27.0534 43.831 27.0403 43.8211 26.6183C43.8145 26.3631 43.8111 26.1079 43.8045 25.856C43.7946 25.4339 43.136 25.447 43.1426 25.8691Z" fill="#46A358"/>
<path d="M43.9402 29.7787C43.9667 30.1059 44.0295 30.4265 44.1388 30.734C44.2811 31.1299 44.9165 30.9467 44.7742 30.5475C44.6815 30.2924 44.6219 30.0339 44.6021 29.7656C44.5723 29.3468 43.9104 29.3599 43.9402 29.7787Z" fill="#46A358"/>
<path d="M45.3898 32.563C45.4494 32.7626 45.5089 32.9622 45.5685 33.1585C45.6877 33.5609 46.3231 33.3777 46.2039 32.972C46.1444 32.7724 46.0848 32.5761 46.0252 32.3765C45.9061 31.9741 45.2707 32.1573 45.3898 32.563Z" fill="#46A358"/>
<path d="M46.1675 30.0371C46.2072 30.181 46.2469 30.325 46.2866 30.4722C46.3991 30.8779 47.0346 30.6914 46.922 30.2857C46.8823 30.1418 46.8426 29.9978 46.8029 29.8506C46.6904 29.4449 46.0549 29.6314 46.1675 30.0371Z" fill="#46A358"/>
<path d="M44.2911 35.4779C44.3738 35.8018 44.4532 36.129 44.536 36.4529C44.6386 36.8618 45.274 36.6753 45.1714 36.2664C45.0887 35.9425 45.0092 35.6153 44.9265 35.2914C44.8239 34.8824 44.1885 35.0689 44.2911 35.4779Z" fill="#46A358"/>
<path d="M45.9358 40.2415C45.9954 40.3854 46.0517 40.5294 46.1112 40.6733C46.1774 40.8369 46.3396 40.9481 46.5216 40.8925C46.6805 40.8467 46.8095 40.6504 46.7433 40.4868C46.6838 40.3429 46.6275 40.1989 46.5679 40.055C46.5018 39.8914 46.3396 39.7802 46.1576 39.8358C45.9987 39.8816 45.8696 40.0779 45.9358 40.2415Z" fill="#46A358"/>
<path d="M67.4808 26.6836C67.3054 27.0336 67.1267 27.3804 66.9513 27.7305C66.7593 28.1068 67.3385 28.4274 67.5305 28.0479C67.7059 27.6978 67.8846 27.351 68.06 27.0009C68.2519 26.6247 67.6728 26.3073 67.4808 26.6836Z" fill="#46A358"/>
<path d="M68.4074 27.5047C68.3247 27.8352 68.2387 28.1623 68.1559 28.4928C68.05 28.9017 68.6921 29.0621 68.798 28.6531C68.8807 28.3227 68.9667 27.9955 69.0495 27.6651C69.1521 27.2594 68.51 27.0991 68.4074 27.5047Z" fill="#46A358"/>
<path d="M67.5933 30.6325C67.5105 30.9073 67.4278 31.1821 67.3417 31.457C67.2193 31.8627 67.8613 32.0197 67.9838 31.6173C68.0665 31.3425 68.1493 31.0676 68.2353 30.7928C68.3545 30.3904 67.7124 30.2301 67.5933 30.6325Z" fill="#46A358"/>
<path d="M67.0374 29.3076C66.9679 29.4352 66.895 29.566 66.8255 29.6936C66.6204 30.0633 67.1995 30.384 67.4047 30.011C67.4742 29.8834 67.547 29.7525 67.6165 29.6249C67.8217 29.2585 67.2425 28.9379 67.0374 29.3076Z" fill="#46A358"/>
<path d="M68.6722 29.4646C68.6424 29.7198 68.6126 29.975 68.5829 30.2302C68.563 30.4069 68.6325 30.5803 68.8211 30.6293C68.9767 30.6686 69.2017 30.5704 69.2249 30.3938C69.2547 30.1386 69.2845 29.8834 69.3143 29.6282C69.3341 29.4515 69.2646 29.2781 69.076 29.2291C68.9171 29.1898 68.6921 29.2879 68.6722 29.4646Z" fill="#46A358"/>
<path d="M65.5546 31.1625C65.4884 31.3719 65.3891 31.5616 65.27 31.7448C65.0383 32.0982 65.6175 32.4155 65.8492 32.0622C66.0014 31.8332 66.1139 31.5845 66.1966 31.3228C66.2496 31.1559 66.1238 30.9662 65.9584 30.9236C65.773 30.8811 65.6076 30.9923 65.5546 31.1625Z" fill="#46A358"/>
<path d="M65.5348 33.9761C65.3925 34.2084 65.323 34.4734 65.3362 34.745C65.356 35.1638 66.018 35.1539 65.9981 34.7319C65.9915 34.5683 66.0246 34.4342 66.1139 34.2968C66.3357 33.9336 65.7565 33.6162 65.5348 33.9761Z" fill="#46A358"/>
<path d="M67.259 33.2565C67.1928 33.4757 67.1266 33.6982 67.0637 33.9174C66.9446 34.3231 67.5866 34.4801 67.7058 34.0777C67.772 33.8585 67.8382 33.636 67.901 33.4168C68.0202 33.0111 67.3781 32.8541 67.259 33.2565Z" fill="#46A358"/>
<path d="M66.713 36.4824C66.6435 36.7212 66.5773 36.9568 66.5078 37.1956C66.392 37.6013 67.034 37.7616 67.1499 37.3559C67.2194 37.1171 67.2855 36.8815 67.355 36.6427C67.4709 36.2403 66.8288 36.0799 66.713 36.4824Z" fill="#46A358"/>
<path d="M68.8112 31.8364C68.7946 31.9837 68.7814 32.1276 68.7648 32.2749C68.745 32.4515 68.9402 32.5987 69.1024 32.5955C69.301 32.5922 69.4069 32.4384 69.4267 32.2618C69.4433 32.1145 69.4565 31.9706 69.4731 31.8234C69.4929 31.6467 69.2977 31.4995 69.1355 31.5027C68.9369 31.5093 68.831 31.6598 68.8112 31.8364Z" fill="#46A358"/>
<path d="M64.6545 38.3799C64.6214 38.4911 64.585 38.5991 64.5519 38.7103C64.4261 39.1127 65.0682 39.2731 65.1939 38.8706C65.227 38.7594 65.2634 38.6514 65.2965 38.5402C65.4223 38.1378 64.7802 37.9807 64.6545 38.3799Z" fill="#46A358"/>
<path d="M64.1217 41.7202C64.0522 41.9034 63.9794 42.0866 63.9099 42.2698C63.847 42.4334 63.9893 42.6264 64.1482 42.669C64.3401 42.718 64.4857 42.597 64.5519 42.4334C64.6214 42.2502 64.6942 42.067 64.7637 41.8838C64.8266 41.7202 64.6843 41.5272 64.5254 41.4846C64.3335 41.4355 64.1879 41.5533 64.1217 41.7202Z" fill="#46A358"/>
<path d="M66.7262 40.3888C66.7295 40.4968 66.7295 40.608 66.7328 40.716C66.7427 41.138 67.4046 41.1249 67.3947 40.7029C67.3914 40.5949 67.3914 40.4837 67.3881 40.3757C67.3782 39.9537 66.7163 39.9668 66.7262 40.3888Z" fill="#46A358"/>
<path d="M65.4918 44.7237C65.4753 44.8709 65.462 45.0148 65.4455 45.1621C65.4256 45.3387 65.6209 45.486 65.7831 45.4827C65.9816 45.4794 66.0875 45.3257 66.1074 45.149C66.1239 45.0018 66.1372 44.8578 66.1537 44.7106C66.1736 44.5339 65.9783 44.3867 65.8162 44.3899C65.6209 44.3932 65.5117 44.547 65.4918 44.7237Z" fill="#46A358"/>
<path d="M35.2594 31.0806C35.3157 31.2606 35.3752 31.4438 35.4315 31.6237C35.5572 32.0261 36.1927 31.8397 36.0669 31.4373C36.0106 31.2573 35.9511 31.0741 35.8948 30.8942C35.7657 30.4917 35.1303 30.6782 35.2594 31.0806Z" fill="#46A358"/>
<path d="M35.9411 30.3381C36.1629 30.6097 36.3879 30.8812 36.6097 31.1495C36.7222 31.2869 36.9638 31.2574 37.0763 31.1397C37.212 30.999 37.1789 30.8158 37.0664 30.6784C36.8446 30.4068 36.6196 30.1353 36.3979 29.867C36.2853 29.7296 36.0437 29.759 35.9312 29.8768C35.7955 30.0142 35.8286 30.2007 35.9411 30.3381Z" fill="#46A358"/>
<path d="M37.212 32.6415C37.4039 32.9098 37.5959 33.1781 37.7845 33.4431C38.0294 33.7866 38.5954 33.4464 38.3504 33.1029C38.1585 32.8346 37.9665 32.5663 37.7779 32.3013C37.5297 31.9578 36.9638 32.2947 37.212 32.6415Z" fill="#46A358"/>
<path d="M36.3979 33.4233C36.5501 33.6752 36.7023 33.9271 36.8546 34.1791C37.073 34.5389 37.6389 34.1987 37.4205 33.8388C37.2683 33.5869 37.116 33.335 36.9638 33.083C36.742 32.7199 36.1794 33.0601 36.3979 33.4233Z" fill="#46A358"/>
<path d="M37.8805 36.1224C38.0725 36.4626 38.2677 36.8029 38.4597 37.1431C38.6682 37.5096 39.2341 37.1693 39.0256 36.8029C38.8337 36.4626 38.6384 36.1224 38.4465 35.7821C38.2346 35.4157 37.672 35.756 37.8805 36.1224Z" fill="#46A358"/>
<path d="M38.4663 35.131C38.5987 35.3273 38.7311 35.5269 38.8634 35.7232C39.0984 36.0732 39.6643 35.733 39.4294 35.3829C39.297 35.1866 39.1646 34.987 39.0322 34.7907C38.7939 34.4407 38.228 34.7777 38.4663 35.131Z" fill="#46A358"/>
<path d="M38.7741 33.757C38.8833 33.9893 39.0686 34.1693 39.2903 34.3001C39.661 34.5128 39.982 33.9402 39.6114 33.7276C39.479 33.6523 39.3996 33.5509 39.3367 33.4168C39.2606 33.2565 39.0223 33.2237 38.88 33.3088C38.7178 33.4102 38.6979 33.5967 38.7741 33.757Z" fill="#46A358"/>
<path d="M36.2919 35.4745C36.3349 35.6544 36.3746 35.8344 36.4176 36.0176C36.4573 36.191 36.6658 36.2859 36.828 36.2368C37.01 36.1844 37.0895 36.0012 37.0497 35.8311C37.0067 35.6512 36.967 35.4712 36.924 35.288C36.8843 35.1146 36.6758 35.0197 36.5136 35.0688C36.3316 35.1211 36.2522 35.3044 36.2919 35.4745Z" fill="#46A358"/>
<path d="M38.3802 38.8936C38.5325 39.2011 38.6847 39.5087 38.8336 39.8129C38.9131 39.9733 39.148 40.006 39.2903 39.9209C39.4558 39.8228 39.479 39.6297 39.3996 39.4694C39.2473 39.1619 39.0951 38.8543 38.9462 38.5501C38.8667 38.3898 38.6317 38.357 38.4894 38.4421C38.324 38.5435 38.3008 38.7366 38.3802 38.8936Z" fill="#46A358"/>
<path d="M40.8525 37.9679C40.9683 38.1838 41.0808 38.3997 41.1966 38.6156C41.3952 38.9886 41.9578 38.6451 41.7626 38.2754C41.6467 38.0595 41.5342 37.8435 41.4184 37.6276C41.2165 37.2546 40.6539 37.5949 40.8525 37.9679Z" fill="#46A358"/>
<path d="M41.6071 42.6463C41.703 42.8263 41.799 43.0062 41.8983 43.1829C42.1002 43.5558 42.6628 43.2123 42.4642 42.8426C42.3682 42.6627 42.2723 42.4827 42.173 42.3061C41.9711 41.9331 41.4052 42.2734 41.6071 42.6463Z" fill="#46A358"/>
<path d="M42.7819 40.9875C42.8944 41.1675 43.0103 41.3474 43.1228 41.5273C43.3478 41.884 43.9138 41.5437 43.6887 41.1871C43.5762 41.0071 43.4603 40.8272 43.3478 40.6473C43.1195 40.2907 42.5535 40.6309 42.7819 40.9875Z" fill="#46A358"/>
<path d="M44.099 46.0323C44.1917 46.1959 44.2877 46.3562 44.3803 46.5198C44.5921 46.8862 45.1548 46.5427 44.9463 46.1795C44.8536 46.0159 44.7576 45.8556 44.6649 45.692C44.4531 45.3256 43.8872 45.6659 44.099 46.0323Z" fill="#46A358"/>
<path d="M33.4259 44.0104C33.6476 44.1151 33.8727 44.2165 34.0944 44.3212C34.4783 44.5012 34.8026 43.9286 34.4154 43.7487C34.1937 43.644 33.9687 43.5426 33.7469 43.4379C33.3663 43.2612 33.042 43.8305 33.4259 44.0104Z" fill="#46A358"/>
<path d="M35.5341 44.9624C35.779 45.1358 36.0239 45.3124 36.2655 45.4858C36.4111 45.5905 36.6361 45.5022 36.7156 45.3582C36.8115 45.1881 36.7321 45.018 36.5865 44.9133C36.3416 44.7399 36.0967 44.5632 35.8551 44.3898C35.7095 44.2851 35.4844 44.3735 35.405 44.5174C35.3123 44.6875 35.3918 44.8577 35.5341 44.9624Z" fill="#46A358"/>
<path d="M35.2098 43.9613C35.3786 43.9973 35.5341 44.053 35.6863 44.138C36.0603 44.3409 36.3813 43.7683 36.0074 43.5655C35.8088 43.4575 35.5937 43.3757 35.3719 43.3266C34.9582 43.235 34.7928 43.8697 35.2098 43.9613Z" fill="#46A358"/>
<path d="M37.1491 45.3584C37.298 45.4631 37.4469 45.571 37.5959 45.6757C37.7415 45.7772 37.9665 45.6921 38.046 45.5481C38.1419 45.378 38.0625 45.2046 37.9169 45.1032C37.768 44.9985 37.619 44.8905 37.4701 44.7858C37.3245 44.6844 37.0994 44.7695 37.02 44.9134C36.9273 45.0836 37.0035 45.2537 37.1491 45.3584Z" fill="#46A358"/>
<path d="M37.1028 46.3366C37.1789 46.4446 37.255 46.5525 37.3311 46.6605C37.5727 47.004 38.1387 46.667 37.8971 46.3202C37.8209 46.2123 37.7448 46.1043 37.6687 45.9963C37.4271 45.6495 36.8579 45.9898 37.1028 46.3366Z" fill="#46A358"/>
<path d="M38.602 46.8634C38.7509 46.9877 38.8999 47.1121 39.0521 47.2364C39.1878 47.3509 39.3897 47.3607 39.5187 47.2266C39.6379 47.1055 39.6478 46.8765 39.5088 46.7653C39.3599 46.6409 39.211 46.5166 39.0587 46.3923C38.923 46.2778 38.7212 46.268 38.5921 46.4021C38.4729 46.5199 38.463 46.7489 38.602 46.8634Z" fill="#46A358"/>
<path d="M72.7628 37.2251C72.4086 37.1597 72.0578 37.1662 71.707 37.2546C71.2933 37.3593 71.482 37.9874 71.8957 37.8827C72.1273 37.8238 72.3623 37.814 72.5973 37.8598C73.0176 37.9384 73.1798 37.3037 72.7628 37.2251Z" fill="#46A358"/>
<path d="M70.4793 37.9021C70.3535 37.997 70.2244 38.0886 70.0987 38.1835C69.9564 38.2882 69.8902 38.4714 69.9895 38.635C70.0755 38.7756 70.3006 38.8509 70.4462 38.7429C70.5719 38.648 70.701 38.5564 70.8268 38.4616C70.9691 38.3569 71.0353 38.1737 70.936 38.0101C70.8499 37.8694 70.6249 37.7974 70.4793 37.9021Z" fill="#46A358"/>
<path d="M70.5851 37.5817C71.012 37.5719 70.9988 36.9175 70.5718 36.9274C70.1449 36.9372 70.1581 37.5915 70.5851 37.5817Z" fill="#46A358"/>
</g>
<g clip-path="url(#clip1_104_844)">
<path d="M37.3859 50.6164C35.0447 56.6309 33.3971 62.9163 32.8568 69.3708C32.3966 74.8878 32.5367 80.8381 35.5583 85.6511C35.9051 86.2028 36.7589 85.6748 36.412 85.1197C33.3804 80.2931 33.3871 74.238 33.9141 68.7243C34.501 62.5812 36.1285 56.5937 38.3564 50.8668C38.5898 50.261 37.6193 50.0173 37.3859 50.6164Z" fill="#727272"/>
<path d="M67.7884 49.6855C73.1145 53.7471 73.1212 61.1933 73.6948 67.3061C73.9849 70.3895 74.3852 73.4831 74.5252 76.58C74.6553 79.4096 74.4218 82.4152 72.214 84.4189C71.7338 84.8556 72.4575 85.5562 72.9344 85.1229C74.8787 83.3595 75.4791 80.8346 75.5458 78.2724C75.6425 74.6237 75.0322 70.9141 74.692 67.2891C74.095 60.9192 74.0216 53.1818 68.4787 48.9544C67.9718 48.5652 67.2748 49.2929 67.7884 49.6855Z" fill="#727272"/>
<path d="M35.7583 85.8542C38.5831 86.8865 41.4713 87.1437 44.4428 87.3976C47.7312 87.6785 51.0496 88.1016 54.3547 87.9831C57.7098 87.8647 61.0749 87.3806 64.4099 87.0151C67.3281 86.6936 70.223 86.2874 72.9444 85.1095C73.528 84.8557 73.2512 83.8775 72.6576 84.1348C69.8361 85.3566 66.8412 85.7357 63.8163 86.0606C60.668 86.3991 57.4996 86.856 54.3347 86.9677C51.233 87.0794 48.1248 86.6969 45.0365 86.4363C41.9582 86.1723 38.9366 85.9422 36.0051 84.8726C35.3981 84.6458 35.158 85.6342 35.7583 85.8542Z" fill="#727272"/>
<path d="M37.626 51.1849C39.9538 52.1495 42.3318 53.0025 44.8431 53.3037C47.4544 53.6151 50.1158 53.1683 52.7439 53.236C54.2013 53.2732 55.512 53.4729 56.9827 53.2597C58.2501 53.0735 59.5174 52.8163 60.748 52.4609C63.2994 51.723 65.7707 50.6941 68.2753 49.8073C68.8789 49.5941 68.5988 48.6193 67.9885 48.8325C63.0859 50.5689 58.4902 52.5963 53.1974 52.2477C50.9963 52.1021 48.8051 52.4304 46.6107 52.4101C43.6558 52.3797 40.8143 51.4184 38.1062 50.2981C37.5226 50.0544 37.029 50.9378 37.626 51.1849Z" fill="#727272"/>
<path d="M7.66372 54.2413C13.2666 55.1348 18.4794 57.8257 22.3847 62.0193C26.1634 66.0775 28.2878 71.4252 32.41 75.1924C32.8869 75.629 33.5839 74.8979 33.1037 74.4613C28.7347 70.4674 26.5502 64.6898 22.3481 60.5368C18.4127 56.6478 13.3233 54.1194 7.91052 53.2564C7.27685 53.1548 7.02672 54.1398 7.66372 54.2413Z" fill="#727272"/>
<path d="M8.53746 52.4236C13.6235 51.2458 19.0296 51.9464 23.5987 54.5424C27.2439 56.6138 30.2355 59.8868 34.5877 60.3336C35.2281 60.3979 35.2014 59.3825 34.5677 59.3182C29.6852 58.8173 26.1633 54.3529 21.761 52.5184C17.4688 50.7313 12.763 50.4064 8.25398 51.4488C7.62365 51.5944 7.91047 52.5692 8.53746 52.4236Z" fill="#727272"/>
<path d="M7.72372 51.7433C7.34019 52.2781 7.09339 52.9042 7.00668 53.5575C6.96999 53.8316 7.08672 54.099 7.3702 54.1735C7.60699 54.2378 7.9405 54.0787 7.97719 53.8045C8.05389 53.2224 8.25733 52.7113 8.59751 52.2341C8.75759 52.0107 8.61752 51.6688 8.40408 51.5436C8.14727 51.3981 7.88047 51.5233 7.72372 51.7433Z" fill="#727272"/>
<path d="M71.8106 52.6708C73.8783 48.6532 80.4484 48.1354 84.157 49.9766C88.1758 51.9736 90.0301 56.8103 88.3825 61.0411C86.9484 64.727 83.2632 66.531 80.2316 68.6566C78.9543 69.5535 77.5335 70.5622 76.6497 71.8856C75.7259 73.2699 75.846 75.0299 74.9322 76.4109C74.572 76.9558 75.4491 77.4432 75.806 76.905C76.3829 76.0352 76.5497 75.1078 76.8065 74.1127C77.17 72.7216 77.8971 71.828 78.9409 70.9176C80.7385 69.3505 82.8463 68.2166 84.7606 66.812C88.1491 64.3242 90.527 60.7906 89.8967 56.3635C89.3197 52.3324 86.1247 48.9985 82.1793 48.264C78.2039 47.5227 72.9645 48.2369 70.9334 52.18C70.6366 52.7554 71.5104 53.2496 71.8106 52.6708Z" fill="#727272"/>
<path d="M72.8244 55.2263C74.2085 52.4238 77.3601 51.6995 80.2216 51.9229C82.1293 52.0718 83.3066 52.8334 84.3038 54.4953C85.4077 56.3297 85.3543 57.8833 84.7306 59.8396C83.7501 62.9062 81.9825 64.3277 79.2645 65.7662C77.4835 66.7071 74.7654 67.9392 74.0551 70.0207C73.845 70.6401 74.8155 70.8838 75.0256 70.2712C75.6726 68.3758 78.8476 67.1438 80.4818 66.2671C81.8992 65.509 83.2265 64.673 84.1837 63.336C85.6978 61.224 86.9418 57.775 85.8446 55.2737C84.5039 52.214 82.4528 50.8567 79.1777 50.8804C76.2629 50.9007 73.3247 51.9568 71.954 54.7322C71.6638 55.3143 72.5376 55.8085 72.8244 55.2263Z" fill="#727272"/>
<path d="M54.3081 62.5709C51.3666 63.0143 48.8819 65.2346 48.5851 68.3383C48.3016 71.2965 50.2693 75.1483 53.6111 74.9215C56.6593 74.715 59.3674 71.7162 59.6475 68.7174C59.9577 65.4174 57.5198 62.5404 54.208 62.6859C53.5644 62.713 53.5844 63.7284 54.228 63.7013C57.1329 63.5727 59.1339 66.2669 58.5903 69.1033C58.1501 71.3981 55.969 73.7132 53.591 73.9095C50.6695 74.1498 49.1787 70.3962 49.6423 67.9593C50.0859 65.6238 52.0569 63.9315 54.3281 63.5896C54.9551 63.4915 54.9451 62.4727 54.3081 62.5709Z" fill="#727272"/>
<path d="M54.8817 63.0143C54.7049 60.8616 58.0366 57.5886 59.7042 60.0798C60.2211 60.8515 60.7214 62.2223 60.5079 63.1733C60.2778 64.1921 59.294 64.9537 58.5402 65.5798C58.0433 65.9928 58.7704 66.6934 59.2606 66.2839C60.4479 65.2989 61.6685 64.1177 61.5552 62.4287C61.4618 61.0478 60.708 59.2268 59.5208 58.4687C56.9861 56.8474 53.6777 60.5604 53.8811 63.038C53.9345 63.6844 54.935 63.6675 54.8817 63.0143Z" fill="#727272"/>
<path d="M59.5274 66.5106C60.7814 65.7559 64.0264 65.9555 63.6896 68.1353C63.3694 70.2135 60.718 70.2981 59.1472 70.3184C58.5035 70.3252 58.5235 71.3406 59.1672 71.3338C61.3717 71.3067 65.227 70.6027 64.6767 67.438C64.2432 64.9537 60.788 64.5678 59.0038 65.6442C58.4501 65.9792 58.9704 66.8457 59.5274 66.5106Z" fill="#727272"/>
<path d="M58.5203 71.5198C60.2745 72.3051 62.2489 74.6371 60.5814 76.519C58.6304 78.719 55.8089 76.5427 55.0885 74.4205C54.8784 73.8045 53.9179 74.0888 54.128 74.7116C55.0618 77.4532 58.4269 79.8224 61.0216 77.4972C63.5429 75.2396 61.5385 71.7669 59.0072 70.6297C58.4236 70.3691 57.9333 71.2558 58.5203 71.5198Z" fill="#727272"/>
<path d="M53.6476 74.6746C53.7377 76.3805 53.2674 78.919 51.0063 78.6143C49.9791 78.4756 49.1886 77.538 49.2353 76.4752C49.2754 75.5208 49.939 74.4072 50.3026 73.534C50.5494 72.9383 49.6789 72.4373 49.4288 73.0398C48.8985 74.3192 47.978 75.8118 48.3182 77.2571C48.595 78.4282 49.5055 79.359 50.6728 79.5925C53.651 80.1916 54.7749 77.0743 54.6482 74.6509C54.6148 74.001 53.6143 74.018 53.6476 74.6746Z" fill="#727272"/>
<path d="M50.1659 72.2715C48.3016 73.0534 45.4234 72.8537 44.7731 70.481C44.4896 69.4385 44.8064 68.2065 45.7703 67.6413C46.7074 67.093 47.9181 67.2385 48.9386 67.3637C49.5689 67.4416 49.8224 66.4567 49.1854 66.3788C47.7713 66.2062 46.1671 66.0539 44.9498 66.9745C43.9393 67.7394 43.5291 69.0798 43.7225 70.3152C44.2228 73.5069 47.9014 74.3091 50.4494 73.2429C51.043 72.9992 50.7629 72.021 50.1659 72.2715Z" fill="#727272"/>
<path d="M49.5456 66.4936C47.8613 65.5798 46.9809 62.2222 48.4583 60.7702C50.3993 58.8646 52.7839 61.5656 53.9579 63.0277C54.3647 63.5321 55.0518 62.7976 54.6516 62.2966C53.1174 60.3877 49.799 57.4667 47.5312 60.2185C45.8636 62.2459 46.8608 66.189 49.0586 67.3838C49.6256 67.6918 50.1159 66.805 49.5456 66.4936Z" fill="#727272"/>
<path d="M51.1531 73.9569C50.3627 74.7286 49.8491 76.8169 51.0631 77.4499C52.5172 78.2114 53.1608 75.6221 53.3543 74.688C53.441 74.2615 52.794 74.0956 52.7073 74.5221C52.6205 74.9452 52.5105 75.3615 52.3571 75.7677C52.2804 75.9674 52.197 76.1671 52.0969 76.3566C51.9435 76.6511 51.8535 76.8406 51.5 76.8C50.5461 76.6815 51.1998 74.8504 51.6367 74.4273C51.9435 74.1227 51.4633 73.6556 51.1531 73.9569Z" fill="#727272"/>
<path d="M55.452 74.0043C55.2819 74.9791 56.3691 75.744 57.1462 76.0926C57.9333 76.4446 59.0305 76.5631 59.7676 76.0114C60.4713 75.4834 60.3612 74.5255 60.0577 73.7944C59.6442 72.7993 58.7937 72.1292 57.8099 71.7772C57.403 71.6316 57.2429 72.2916 57.6465 72.4338C58.2401 72.647 58.7737 73.0058 59.1506 73.527C59.2806 73.7098 59.3807 73.9027 59.4641 74.1126C59.6575 74.6068 59.6875 74.8301 59.344 75.26C59.0505 75.6255 58.8971 75.7102 58.4502 75.7135C58.1701 75.7135 57.8799 75.656 57.6164 75.5612C57.2129 75.4157 55.9956 74.7726 56.099 74.1769C56.1724 73.7437 55.5287 73.5744 55.452 74.0043Z" fill="#727272"/>
<path d="M59.3207 69.6246C60.1578 69.8378 60.9915 69.4723 61.6952 69.0221C62.2088 68.6938 62.8859 68.0947 62.8258 67.4009C62.7758 66.8221 62.2088 66.5479 61.7019 66.487C60.8281 66.3787 59.971 66.7612 59.2606 67.2418C58.9038 67.4821 59.2506 68.0643 59.6075 67.8206C59.9777 67.5667 60.3712 67.3433 60.8081 67.2316C61.2117 67.1267 62.3856 66.9575 62.0287 67.807C61.7152 68.5618 60.1945 69.1474 59.4841 68.968C59.0672 68.863 58.9038 69.5197 59.3207 69.6246Z" fill="#727272"/>
<path d="M56.209 63.3056C56.1556 62.7912 56.2624 62.2801 56.6292 61.901C56.896 61.6201 57.543 61.2478 57.9232 61.4644C58.2601 61.6573 58.2367 62.4696 58.2367 62.8453C58.2334 63.3835 58.12 63.8946 57.9432 64.3989C57.7998 64.8084 58.4468 64.9709 58.5903 64.5647C58.8771 63.7456 58.9771 62.8859 58.8404 62.0228C58.747 61.4305 58.647 60.8416 57.9899 60.7536C56.5358 60.5539 55.4053 61.9247 55.5487 63.3226C55.5853 63.749 56.2524 63.7389 56.209 63.3056Z" fill="#727272"/>
<path d="M50.0158 65.5697C49.4988 64.9097 49.0553 63.7116 49.2287 62.862C49.3321 62.3475 49.4522 62.1986 49.9791 62.1445C50.506 62.0903 50.6361 62.2494 51.0163 62.5608C51.4032 62.8755 51.78 63.2005 52.1636 63.5186C52.4937 63.7928 52.9573 63.3088 52.6238 63.0312C51.6833 62.246 50.1725 60.4352 48.9752 61.8128C48.0481 62.8823 48.6717 64.9402 49.4455 65.9251C49.709 66.2602 50.2826 65.9116 50.0158 65.5697Z" fill="#727272"/>
<path d="M48.8185 68.2065C47.5178 67.6785 45.8202 68.8529 46.0203 70.3354C46.2071 71.7401 48.4383 72.2613 49.4421 71.4693C49.7756 71.2053 49.4321 70.6231 49.0953 70.8905C48.5483 71.3237 47.1876 71.2087 46.7874 70.5622C46.2004 69.6246 47.6312 68.4434 48.4983 68.7988C48.8885 68.9579 49.2153 68.3689 48.8185 68.2065Z" fill="#727272"/>
</g>
<defs>
<clipPath id="clip0_104_844">
<rect width="44" height="49" fill="white" transform="translate(31 3)"/>
</clipPath>
<clipPath id="clip1_104_844">
<rect width="83" height="40" fill="white" transform="translate(7 48)"/>
</clipPath>
</defs>
</svg>
