<svg width="24" height="24" viewBox="0 0 24 24" fill="none" xmlns="http://www.w3.org/2000/svg">
<path d="M12 21C11.7153 21 11.4408 20.8899 11.2268 20.6898C10.4189 19.9354 9.63992 19.2265 8.95267 18.6011L8.94916 18.5979C6.93423 16.7644 5.19427 15.181 3.98364 13.6212C2.63034 11.8775 2 10.2242 2 8.41811C2 6.66332 2.56351 5.04441 3.58661 3.8594C4.62192 2.66037 6.04251 2 7.58716 2C8.74164 2 9.79892 2.38974 10.7296 3.15829C11.1992 3.54624 11.6249 4.02103 12 4.57484C12.3752 4.02103 12.8008 3.54624 13.2706 3.15829C14.2012 2.38974 15.2585 2 16.413 2C17.9575 2 19.3782 2.66037 20.4135 3.8594C21.4366 5.04441 22 6.66332 22 8.41811C22 10.2242 21.3698 11.8775 20.0165 13.6211C18.8059 15.181 17.0661 16.7642 15.0515 18.5975C14.363 19.2239 13.5828 19.9339 12.773 20.6901C12.5592 20.8899 12.2846 21 12 21V21ZM7.58716 3.251C6.37363 3.251 5.25882 3.76815 4.44781 4.7073C3.62476 5.66063 3.17142 6.97843 3.17142 8.41811C3.17142 9.93714 3.70013 11.2957 4.88559 12.823C6.03137 14.2994 7.73563 15.8502 9.70889 17.6459L9.71255 17.6491C10.4024 18.2769 11.1844 18.9886 11.9983 19.7485C12.8171 18.9871 13.6003 18.2743 14.2916 17.6455C16.2647 15.8498 17.9688 14.2994 19.1146 12.823C20.2999 11.2957 20.8286 9.93714 20.8286 8.41811C20.8286 6.97843 20.3752 5.66063 19.5522 4.7073C18.7413 3.76815 17.6264 3.251 16.413 3.251C15.524 3.251 14.7078 3.55276 13.9872 4.14779C13.3449 4.6783 12.8975 5.34893 12.6352 5.81818C12.5003 6.05949 12.2629 6.20352 12 6.20352C11.7371 6.20352 11.4997 6.05949 11.3648 5.81818C11.1026 5.34893 10.6552 4.6783 10.0128 4.14779C9.29218 3.55276 8.47598 3.251 7.58716 3.251V3.251Z" fill="#3D3D3D"/>
</svg>
