<svg width="24" height="24" viewBox="0 0 24 24" fill="none" xmlns="http://www.w3.org/2000/svg">
<path d="M8.85061 18.7111L8.85172 18.7121C9.53901 19.3374 10.3173 20.0457 11.1244 20.7993C11.3652 21.0246 11.676 21.15 12 21.15C12.3238 21.15 12.6347 21.0246 12.8754 20.7997C13.6844 20.0443 14.4639 19.3349 15.1524 18.7085L15.1524 18.7085L15.1612 18.7005C17.1689 16.8734 18.9165 15.2831 20.135 13.713C21.5041 11.9492 22.15 10.2644 22.15 8.41811C22.15 6.63198 21.5766 4.97696 20.5271 3.76137L20.4135 3.8594L20.5271 3.76137C19.4641 2.53031 18.0024 1.85 16.413 1.85C15.222 1.85 14.1313 2.25298 13.1751 3.04264C12.7446 3.39809 12.3516 3.82361 12 4.31272C11.6485 3.82359 11.2554 3.39808 10.8251 3.04265L10.8251 3.04264C9.86888 2.25298 8.77818 1.85 7.58716 1.85C5.99764 1.85 4.53604 2.53031 3.47308 3.76137L3.47307 3.76137C2.42358 4.97695 1.85 6.63197 1.85 8.41811C1.85 10.2644 2.49608 11.9492 3.86514 13.7132L3.98291 13.6218L3.86515 13.7132C5.084 15.2836 6.83234 16.8745 8.84105 18.7023L8.84711 18.7078L8.8482 18.7088L8.85061 18.7111ZM5.00409 12.7311L4.88559 12.823L5.00409 12.731C3.8334 11.2227 3.32142 9.89567 3.32142 8.41811C3.32142 7.00896 3.76516 5.72754 4.56135 4.80533C5.3446 3.89833 6.41834 3.401 7.58716 3.401C8.43923 3.401 9.22205 3.68938 9.91734 4.26346C10.5398 4.77752 10.9764 5.43054 11.2338 5.89134L11.2338 5.89137C11.3936 6.17708 11.6794 6.35352 12 6.35352C12.3206 6.35352 12.6064 6.17708 12.7662 5.89137C13.0237 5.43054 13.4603 4.77751 14.0827 4.26344C14.778 3.68938 15.5608 3.401 16.413 3.401C17.5817 3.401 18.6556 3.89834 19.4386 4.80533C20.2348 5.72754 20.6786 7.00896 20.6786 8.41811C20.6786 9.89567 20.1666 11.2227 18.9961 12.7311C17.86 14.1949 16.1672 15.7357 14.1906 17.5346C13.5283 18.1371 12.7809 18.8173 11.9985 19.5436C11.2206 18.8187 10.4744 18.1396 9.81351 17.5382L9.81227 17.5371L9.80985 17.5349C9.80963 17.5347 9.80941 17.5345 9.80919 17.5343C7.83276 15.7357 6.14003 14.1947 5.00409 12.7311Z" fill="#3D3D3D" stroke="#3D3D3D" stroke-width="0.3"/>
</svg>
