<svg width="20" height="20" viewBox="0 0 20 20" fill="none" xmlns="http://www.w3.org/2000/svg">
<path d="M14.294 16.875H8.24078C5.65656 16.875 3.55412 14.7722 3.55412 12.1875V7.38289C3.55412 4.98017 2.35676 2.75616 0.351226 1.43359C-0.0089437 1.19609 -0.108379 0.711564 0.129078 0.351331C0.366535 -0.00893986 0.85094 -0.108431 1.21119 0.129145C2.35606 0.884141 3.28488 1.87992 3.94905 3.02639C4.09258 3.18721 5.24995 4.41416 7.14726 4.41416H16.142C18.596 4.36826 20.5168 6.83141 19.8752 9.20054L18.8398 13.3282C18.3159 15.4165 16.4466 16.875 14.294 16.875V16.875ZM4.91927 5.53528C5.04913 6.13532 5.11634 6.75403 5.11634 7.38289V12.1875C5.11634 13.9107 6.51796 15.3125 8.24078 15.3125H14.294C15.7291 15.3125 16.9753 14.3402 17.3245 12.948L18.3599 8.8203C18.7412 7.41258 17.5997 5.94942 16.142 5.97665H7.14723C6.28914 5.97665 5.54224 5.79161 4.91927 5.53528V5.53528ZM7.85022 19.0234C7.85022 18.4841 7.41308 18.0469 6.87384 18.0469C5.57829 18.0985 5.57942 19.9489 6.87384 20C7.41308 20 7.85022 19.5628 7.85022 19.0234ZM15.6223 19.0234C15.6223 18.4841 15.1851 18.0469 14.6459 18.0469C13.3503 18.0985 13.3515 19.9489 14.6459 20C15.1851 20 15.6223 19.5628 15.6223 19.0234ZM16.9231 8.32038C16.9231 7.8889 16.5734 7.53914 16.142 7.53914H7.45967C6.42329 7.58039 6.42407 9.06073 7.45967 9.10163H16.142C16.5734 9.10163 16.9231 8.75187 16.9231 8.32038Z" fill="#46A358"/>
</svg>
