<svg width="20" height="20" viewBox="0 0 20 20" fill="none" xmlns="http://www.w3.org/2000/svg">
<path d="M7.03186 16.0036C13.0699 16.0036 16.3718 11.0012 16.3718 6.66357C16.3718 6.52144 16.3689 6.38005 16.3624 6.2392C17.0033 5.77588 17.5605 5.19756 18 4.53953C17.4118 4.80085 16.7789 4.97682 16.1149 5.05616C16.7926 4.64981 17.313 4.0067 17.5585 3.24021C16.9241 3.61636 16.2217 3.88969 15.4742 4.03709C14.8749 3.39908 14.0218 3 13.0779 3C11.2648 3 9.79464 4.4702 9.79464 6.28233C9.79464 6.54001 9.82357 6.79041 9.87962 7.0308C7.1516 6.89377 4.73239 5.58735 3.11352 3.60125C2.83127 4.08622 2.66877 4.64999 2.66877 5.25106C2.66877 6.38988 3.24837 7.3953 4.12968 7.98363C3.59121 7.96707 3.08531 7.81894 2.64293 7.57291C2.6422 7.58656 2.6422 7.60039 2.6422 7.61476C2.6422 9.2047 3.77392 10.532 5.27578 10.8329C5.00008 10.908 4.71001 10.9484 4.41047 10.9484C4.19901 10.9484 3.99338 10.9273 3.79339 10.8893C4.21121 12.1933 5.42318 13.1425 6.86007 13.1693C5.73636 14.0499 4.32094 14.5745 2.78305 14.5745C2.51827 14.5745 2.25695 14.5594 2 14.529C3.45273 15.46 5.17769 16.0036 7.03186 16.0036Z" fill="#46A358" fill-opacity="0.6"/>
</svg>
