<svg width="20" height="20" viewBox="0 0 20 20" fill="none" xmlns="http://www.w3.org/2000/svg">
<path fill-rule="evenodd" clip-rule="evenodd" d="M16.1653 7.42995L16.168 7.43062C16.168 7.43062 16.1676 7.4305 16.1667 7.4303C16.1663 7.4302 16.1658 7.43008 16.1653 7.42995ZM5.32444 7.35686C7.91762 7.19575 12.7483 7.19575 15.3415 7.35686L15.3422 7.3644C15.4047 7.99716 15.4299 8.84143 15.4299 10.0192C15.4299 11.1824 15.4053 12.0269 15.3441 12.665C12.6962 12.7703 7.97129 12.7703 5.32282 12.665C5.261 12.0332 5.23602 11.1914 5.23602 10.0192C5.23602 8.84143 5.26123 7.99716 5.32369 7.3644L5.32444 7.35686ZM16.2422 12.6111C16.2422 12.6111 16.2405 12.6115 16.237 12.6122L16.2422 12.6111ZM4.49794 12.6077L4.50063 12.6084C4.49881 12.6079 4.49792 12.6077 4.49794 12.6077ZM1 10.0192C1 14.8412 1.38887 16.63 4.42208 16.8633C7.22196 17.0189 13.4439 17.0189 16.2438 16.8633C19.277 16.7078 19.6659 14.8412 19.6659 10.0192C19.6659 5.19713 19.277 3.40832 16.2438 3.17499C13.4439 2.94167 7.22196 2.94167 4.42208 3.17499C1.38887 3.40832 1 5.19713 1 10.0192ZM4.49794 7.43062C4.49792 7.43061 4.49884 7.43037 4.50073 7.42992L4.49794 7.43062ZM10.7823 11.7389C9.50388 12.3781 7.99973 11.4484 7.99973 10.0192C7.99973 8.58986 9.50388 7.66025 10.7823 8.29945C12.1994 9.008 12.1994 11.0303 10.7823 11.7389Z" fill="#46A358" fill-opacity="0.6"/>
</svg>
